<?xml version="1.0" encoding="UTF-8"?>
<svg version="1.1" xmlns="http://www.w3.org/2000/svg" width="479" height="479">
<path d="M0 0 C1.87752884 -0.00463881 3.75505676 -0.00966486 5.63258362 -0.01504517 C10.69924475 -0.02806989 15.7658927 -0.03459469 20.83256793 -0.03905582 C24.00996812 -0.04200302 27.18736484 -0.04611081 30.36476326 -0.05056 C40.34082375 -0.06420951 50.31687615 -0.07388828 60.29294533 -0.07776189 C71.74423952 -0.08223486 83.19541391 -0.09975821 94.64667171 -0.12876248 C103.54147402 -0.15049672 112.4362429 -0.16047241 121.33107144 -0.16180301 C126.62341987 -0.16284277 131.91565531 -0.16857142 137.20797539 -0.18662262 C177.25295314 -0.31524953 213.84407741 2.05994514 248.06469727 25.16113281 C248.99540039 25.78632812 249.92610352 26.41152344 250.88500977 27.05566406 C258.18924286 32.16446527 264.62960834 38.0247189 271.06469727 44.16113281 C272.14557617 45.16273438 272.14557617 45.16273438 273.24829102 46.18457031 C296.42518912 68.28889567 312.88348839 102.92845098 314.22583008 135.01245117 C314.26363434 138.60319644 314.29581858 142.19349954 314.30493164 145.78442383 C314.31454298 148.06207153 314.34559026 150.33877769 314.37719727 152.61621094 C314.65139811 190.5629891 297.79865535 224.93915675 272.06469727 252.16113281 C271.30672852 252.98355469 270.54875977 253.80597656 269.76782227 254.65332031 C246.34027643 279.22927526 209.12701735 295.59335571 175.33480358 296.58427811 C170.95571706 296.63746669 166.58033194 296.6038244 162.20141602 296.55175781 C160.30329495 296.54426718 158.40516597 296.53858768 156.5070343 296.53460693 C151.58992918 296.51957211 146.6733216 296.48049114 141.75640869 296.43579102 C136.70754725 296.39435057 131.65860282 296.37649345 126.60961914 296.35644531 C116.76109715 296.31396744 106.91293909 296.24599703 97.06469727 296.16113281 C98.90447317 293.03700955 100.66840052 290.29782275 103.17407227 287.67285156 C103.760354 287.0530542 104.34663574 286.43325684 104.95068359 285.79467773 C105.56580811 285.15248291 106.18093262 284.51028809 106.81469727 283.84863281 C108.0851153 282.50572117 109.35465753 281.16198042 110.62329102 279.81738281 C111.22512207 279.18058594 111.82695312 278.54378906 112.44702148 277.88769531 C114.84192532 275.33158907 117.14265512 272.70158981 119.42797852 270.04785156 C121.44343499 267.72454494 123.50318189 265.44364816 125.56469727 263.16113281 C128.93687564 259.42641649 132.26653559 255.65948895 135.55688477 251.85253906 C136.05446289 251.294375 136.55204102 250.73621094 137.06469727 250.16113281 C137.47671387 249.64035156 137.88873047 249.11957031 138.31323242 248.58300781 C140.75836306 246.59800073 142.4708958 246.76200488 145.59594727 246.71972656 C147.26318848 246.68238403 147.26318848 246.68238403 148.96411133 246.64428711 C150.15230469 246.62922119 151.34049805 246.61415527 152.56469727 246.59863281 C155.02836021 246.53549125 157.49190969 246.46776055 159.95532227 246.39550781 C161.16768555 246.36005859 162.38004883 246.32460938 163.62915039 246.28808594 C193.9696091 245.16692061 219.19245237 235.30545467 240.18969727 212.91113281 C244.89526124 207.46408603 248.5089079 201.39909088 252.06469727 195.16113281 C252.77625977 193.9275 252.77625977 193.9275 253.50219727 192.66894531 C265.10926813 171.12332003 266.89865152 145.18348663 260.22875977 121.84472656 C258.51817736 116.43170909 256.50761374 111.28407235 254.06469727 106.16113281 C253.43821289 104.82888672 253.43821289 104.82888672 252.79907227 103.46972656 C240.76217758 79.70723619 219.37811083 63.49732301 194.41235352 55.05566406 C185.74004596 52.73832634 177.1918931 51.80400502 168.23803711 51.54663086 C166.507753 51.49033902 166.507753 51.49033902 164.74251366 51.43290997 C149.13319763 50.97807929 133.51684097 50.99627772 117.90225267 50.99387574 C115.25579026 50.99315439 112.60933273 50.99100044 109.96287155 50.98837852 C100.67959016 50.97920164 91.39632289 50.97503484 82.11303711 50.97583008 C73.53607127 50.97643227 64.95916801 50.96583291 56.382218 50.95008641 C48.94276282 50.93692724 41.50332795 50.9316495 34.06386125 50.93228549 C29.65318406 50.93253755 25.24256304 50.92984913 20.83189774 50.91910744 C-29.42439132 50.31398778 -29.42439132 50.31398778 -72.93530273 73.16113281 C-73.77834961 73.87269531 -74.62139648 74.58425781 -75.48999023 75.31738281 C-80.23938623 79.43258647 -84.2732261 83.49937318 -87.77905273 88.72753906 C-88.16061523 89.200625 -88.54217773 89.67371094 -88.93530273 90.16113281 C-89.59530273 90.16113281 -90.25530273 90.16113281 -90.93530273 90.16113281 C-91.34522461 91.26328125 -91.34522461 91.26328125 -91.76342773 92.38769531 C-92.86970979 95.00589617 -94.13590151 97.1620503 -95.68530273 99.53613281 C-108.78489605 121.18729438 -111.41673039 147.91068301 -105.97436523 172.42675781 C-98.90564285 197.83163978 -83.99429753 219.70199894 -60.93530273 233.16113281 C-37.67772817 245.98879642 -8.69386273 249.70332111 17.02954102 242.48144531 C42.7411276 234.38556001 61.93797105 217.91566685 75.02026367 194.29321289 C77.37100282 189.74673923 79.0877816 185.00964007 80.80688477 180.19628906 C81.12326904 179.32363403 81.43965332 178.450979 81.765625 177.55187988 C82.53662269 175.42325583 83.3028651 173.29305056 84.06469727 171.16113281 C82.34248459 171.18658676 82.34248459 171.18658676 80.58547974 171.21255493 C69.78457914 171.37087524 58.98357921 171.51861836 48.18239021 171.65590858 C42.62890811 171.72683965 37.0755294 171.80154437 31.5222168 171.88476562 C26.16663279 171.96488669 20.81100271 172.03523583 15.45519638 172.09870529 C13.40814327 172.12470197 11.36113237 172.15426688 9.31418228 172.187397 C6.45516994 172.23307099 3.5962728 172.26624872 0.73706055 172.29638672 C-0.11601685 172.31292801 -0.96909424 172.3294693 -1.84802246 172.34651184 C-3.8780026 172.36131452 -5.90824989 172.27111123 -7.93530273 172.16113281 C-8.59530273 171.50113281 -9.25530273 170.84113281 -9.93530273 170.16113281 C1.43308014 156.81145817 1.43308014 156.81145817 6.75219727 150.97363281 C9.74387887 147.68171076 12.58994149 144.31521974 15.37719727 140.84863281 C16.09607117 139.99403976 16.81494507 139.13944672 17.55560303 138.25895691 C19.28904927 136.11877761 20.80587224 134.07936679 22.32183838 131.80659485 C25.57861761 127.26907533 28.95087486 123.0998769 34.46186829 121.43844223 C41.45223584 120.32412221 48.50029594 120.66913667 55.54907227 120.89160156 C57.81873277 120.91588439 60.08846198 120.9343723 62.35821533 120.94734192 C68.29809675 120.9966991 74.23376648 121.12413456 80.17199707 121.26849365 C86.24502594 121.40209988 92.31874361 121.46098405 98.39282227 121.52636719 C110.28528585 121.66529166 122.17463977 121.8868065 134.06469727 122.16113281 C135.7309299 131.40813262 136.46599591 140.26375109 136.43969727 149.66113281 C136.43948578 150.36189941 136.43927429 151.06266602 136.4390564 151.78466797 C136.40352904 163.62487505 135.26849728 174.73616246 132.06469727 186.16113281 C131.87746094 186.86044922 131.69022461 187.55976563 131.49731445 188.28027344 C125.67028136 209.756765 115.68684402 229.67206657 100.72875977 246.20800781 C98.06185719 249.08753063 98.06185719 249.08753063 95.83813477 252.05175781 C95.25290039 252.74785156 94.66766602 253.44394531 94.06469727 254.16113281 C93.40469727 254.16113281 92.74469727 254.16113281 92.06469727 254.16113281 C91.73469727 255.15113281 91.40469727 256.14113281 91.06469727 257.16113281 C69.31327435 277.83328665 42.01349474 289.1161403 13.06469727 295.16113281 C11.93656616 295.43159424 11.93656616 295.43159424 10.78564453 295.70751953 C7.2166569 296.30251092 3.68829885 296.34325864 0.08032227 296.36425781 C-0.69353821 296.36995789 -1.46739868 296.37565796 -2.26470947 296.38153076 C-3.90538174 296.39095873 -5.54607276 296.39750597 -7.18676758 296.40136719 C-9.63586171 296.41093957 -12.08406634 296.44192552 -14.53295898 296.47363281 C-43.66805118 296.66977477 -72.52051019 287.75813948 -95.93530273 270.16113281 C-97.16506836 269.24460937 -97.16506836 269.24460937 -98.41967773 268.30957031 C-130.57865079 243.42221218 -153.07482187 209.75189051 -158.54931641 168.95629883 C-159.23724574 162.19231307 -159.33006958 155.45271695 -159.31030273 148.66113281 C-159.30942657 147.91990173 -159.30855042 147.17867065 -159.30764771 146.41497803 C-159.15667446 107.49104487 -144.78724752 74.17852659 -117.93530273 46.16113281 C-117.13092773 45.29359375 -116.32655273 44.42605469 -115.49780273 43.53222656 C-84.26710684 10.86082893 -43.86745447 0.02550011 0 0 Z " fill="#EEF8EF" transform="translate(160.935302734375,89.8388671875)"/>
</svg>
