<?xml version="1.0" encoding="UTF-8"?>
<svg version="1.1" xmlns="http://www.w3.org/2000/svg" width="474" height="474">
<path d="M0 0 C0.94196889 -0.00085442 1.88393778 -0.00170885 2.85445118 -0.00258917 C5.99429572 -0.00422941 9.13408621 0.00125349 12.27392578 0.00672913 C14.53123473 0.00701134 16.78854377 0.0068526 19.04585266 0.00628662 C25.16296049 0.00599997 31.28004868 0.01187532 37.39715195 0.01886058 C43.79398244 0.02511616 50.1908134 0.02569966 56.58764648 0.02688599 C67.32080489 0.02963992 78.05395472 0.03588413 88.78710938 0.04481506 C99.83951786 0.05400205 110.8919244 0.06107659 121.94433594 0.06532288 C122.62625614 0.0655856 123.30817634 0.06584832 124.01076078 0.06611901 C127.43194801 0.0674241 130.85313526 0.06868779 134.27432251 0.06993091 C162.63096605 0.08028804 190.98760178 0.09796745 219.34423828 0.12025452 C219.50876509 2.81785025 219.67169942 5.51552682 219.83374023 8.21327209 C219.88002815 8.96953133 219.92631607 9.72579056 219.97400665 10.50496674 C220.3585682 16.94086115 220.5357844 23.35976536 220.53173828 29.80775452 C220.53238281 30.92190735 220.53302734 32.03606018 220.53369141 33.18397522 C220.45043095 46.86423556 219.42049787 60.48811011 218.34423828 74.12025452 C218.01423828 74.12025452 217.68423828 74.12025452 217.34423828 74.12025452 C216.68423828 79.40025452 216.02423828 84.68025452 215.34423828 90.12025452 C214.68423828 90.12025452 214.02423828 90.12025452 213.34423828 90.12025452 C213.01423828 94.41025452 212.68423828 98.70025452 212.34423828 103.12025452 C211.68423828 103.12025452 211.02423828 103.12025452 210.34423828 103.12025452 C210.31845703 103.6913092 210.29267578 104.26236389 210.26611328 104.85072327 C209.74327124 112.32498789 207.72949674 119.04213873 205.34423828 126.12025452 C204.68423828 126.12025452 204.02423828 126.12025452 203.34423828 126.12025452 C203.01423828 129.09025452 202.68423828 132.06025452 202.34423828 135.12025452 C201.68423828 135.12025452 201.02423828 135.12025452 200.34423828 135.12025452 C200.26044922 135.94396545 200.17666016 136.76767639 200.09033203 137.61634827 C199.17566557 141.91192846 197.44389547 145.32116983 195.40673828 149.18275452 C192.10920609 155.5281379 192.10920609 155.5281379 189.34423828 162.12025452 C188.68423828 162.12025452 188.02423828 162.12025452 187.34423828 162.12025452 C187.26173828 162.80087952 187.17923828 163.48150452 187.09423828 164.18275452 C186.120913 167.99494522 184.38616373 170.76095781 182.34423828 174.12025452 C181.68423828 174.12025452 181.02423828 174.12025452 180.34423828 174.12025452 C180.27205078 174.81763733 180.19986328 175.51502014 180.12548828 176.23353577 C179.1107154 179.98312157 177.23617134 182.26106763 174.84423828 185.30775452 C171.82632012 189.03784711 171.82632012 189.03784711 169.34423828 193.12025452 C168.68423828 193.12025452 168.02423828 193.12025452 167.34423828 193.12025452 C167.24111328 193.71837952 167.13798828 194.31650452 167.03173828 194.93275452 C166.24599796 197.43283737 165.37504975 198.49560534 163.34423828 200.12025452 C162.68423828 200.12025452 162.02423828 200.12025452 161.34423828 200.12025452 C161.34423828 201.11025452 161.34423828 202.10025452 161.34423828 203.12025452 C159.87735791 204.39580267 158.40446962 205.66906568 156.85205078 206.83900452 C155.06923849 208.23498297 155.06923849 208.23498297 153.34423828 211.12025452 C152.68423828 211.12025452 152.02423828 211.12025452 151.34423828 211.12025452 C151.01423828 212.11025452 150.68423828 213.10025452 150.34423828 214.12025452 C149.68423828 214.12025452 149.02423828 214.12025452 148.34423828 214.12025452 C148.01423828 215.11025452 147.68423828 216.10025452 147.34423828 217.12025452 C145.68635043 218.46448791 144.01847511 219.79643935 142.34423828 221.12025452 C141.66361328 222.00712952 140.98298828 222.89400452 140.28173828 223.80775452 C138.25714976 226.22419888 137.411108 226.79166133 134.34423828 227.12025452 C134.34423828 227.78025452 134.34423828 228.44025452 134.34423828 229.12025452 C132.88330078 230.40931702 132.88330078 230.40931702 130.96923828 231.74525452 C130.34275391 232.19127014 129.71626953 232.63728577 129.07080078 233.09681702 C127.34423828 234.12025452 127.34423828 234.12025452 125.34423828 234.12025452 C125.34423828 234.78025452 125.34423828 235.44025452 125.34423828 236.12025452 C122.85009465 239.64139847 119.36801187 240.13329118 115.34423828 241.12025452 C115.34423828 241.78025452 115.34423828 242.44025452 115.34423828 243.12025452 C113.69423828 243.45025452 112.04423828 243.78025452 110.34423828 244.12025452 C110.34423828 244.78025452 110.34423828 245.44025452 110.34423828 246.12025452 C108.69423828 246.45025452 107.04423828 246.78025452 105.34423828 247.12025452 C105.34423828 247.78025452 105.34423828 248.44025452 105.34423828 249.12025452 C104.48701172 249.44638733 103.62978516 249.77252014 102.74658203 250.10853577 C95.42634261 252.88250476 95.42634261 252.88250476 88.21923828 255.93275452 C85.34423828 257.12025452 85.34423828 257.12025452 82.34423828 257.12025452 C82.34423828 257.78025452 82.34423828 258.44025452 82.34423828 259.12025452 C79.70423828 259.45025452 77.06423828 259.78025452 74.34423828 260.12025452 C74.34423828 260.78025452 74.34423828 261.44025452 74.34423828 262.12025452 C73.44499634 262.33174133 73.44499634 262.33174133 72.52758789 262.54750061 C69.7785665 263.19504669 67.03015135 263.84513156 64.28173828 264.49525452 C63.33878906 264.71697327 62.39583984 264.93869202 61.42431641 265.16712952 C57.49423062 266.09829967 53.60868455 267.03994545 49.74267578 268.21400452 C26.87794145 274.311267 0.53794051 271.72315497 -22.65576172 269.12025452 C-22.65576172 268.46025452 -22.65576172 267.80025452 -22.65576172 267.12025452 C-23.52458984 267.07127014 -24.39341797 267.02228577 -25.28857422 266.97181702 C-26.44099609 266.89705139 -27.59341797 266.82228577 -28.78076172 266.74525452 C-29.91771484 266.67564514 -31.05466797 266.60603577 -32.22607422 266.53431702 C-35.63076718 266.12327208 -38.43432398 265.26334533 -41.65576172 264.12025452 C-43.44038655 263.71305843 -45.23217649 263.3355274 -47.03076172 262.99525452 C-47.90474609 262.82767639 -48.77873047 262.66009827 -49.67919922 262.48744202 C-50.33146484 262.36627014 -50.98373047 262.24509827 -51.65576172 262.12025452 C-51.65576172 261.46025452 -51.65576172 260.80025452 -51.65576172 260.12025452 C-54.29576172 259.79025452 -56.93576172 259.46025452 -59.65576172 259.12025452 C-59.65576172 258.46025452 -59.65576172 257.80025452 -59.65576172 257.12025452 C-62.29576172 256.79025452 -64.93576172 256.46025452 -67.65576172 256.12025452 C-67.65576172 255.46025452 -67.65576172 254.80025452 -67.65576172 254.12025452 C-68.89326172 253.91400452 -70.13076172 253.70775452 -71.40576172 253.49525452 C-77.66940439 252.11982587 -83.0301035 249.10390321 -88.65576172 246.12025452 C-90.65343616 245.11561685 -92.65280318 244.11431542 -94.65576172 243.12025452 C-94.65576172 242.46025452 -94.65576172 241.80025452 -94.65576172 241.12025452 C-95.89326172 240.85212952 -97.13076172 240.58400452 -98.40576172 240.30775452 C-101.73802774 239.47468801 -104.17084217 238.60517407 -106.65576172 236.12025452 C-106.65576172 235.46025452 -106.65576172 234.80025452 -106.65576172 234.12025452 C-108.30576172 233.79025452 -109.95576172 233.46025452 -111.65576172 233.12025452 C-111.65576172 232.46025452 -111.65576172 231.80025452 -111.65576172 231.12025452 C-113.63576172 230.46025452 -115.61576172 229.80025452 -117.65576172 229.12025452 C-117.65576172 228.46025452 -117.65576172 227.80025452 -117.65576172 227.12025452 C-118.97576172 226.79025452 -120.29576172 226.46025452 -121.65576172 226.12025452 C-121.65576172 225.46025452 -121.65576172 224.80025452 -121.65576172 224.12025452 C-122.97576172 223.79025452 -124.29576172 223.46025452 -125.65576172 223.12025452 C-125.65576172 222.46025452 -125.65576172 221.80025452 -125.65576172 221.12025452 C-126.37763672 220.85212952 -127.09951172 220.58400452 -127.84326172 220.30775452 C-131.96700697 218.56661763 -135.76670608 216.6175324 -138.65576172 213.12025452 C-138.65576172 212.46025452 -138.65576172 211.80025452 -138.65576172 211.12025452 C-139.25388672 210.83150452 -139.85201172 210.54275452 -140.46826172 210.24525452 C-142.65576172 209.12025452 -142.65576172 209.12025452 -145.65576172 207.12025452 C-145.65576172 206.46025452 -145.65576172 205.80025452 -145.65576172 205.12025452 C-146.64576172 204.79025452 -147.63576172 204.46025452 -148.65576172 204.12025452 C-148.65576172 203.13025452 -148.65576172 202.14025452 -148.65576172 201.12025452 C-147.33576172 201.12025452 -146.01576172 201.12025452 -144.65576172 201.12025452 C-144.65576172 201.78025452 -144.65576172 202.44025452 -144.65576172 203.12025452 C-143.60388672 203.27494202 -143.60388672 203.27494202 -142.53076172 203.43275452 C-139.22972163 204.22213367 -136.68357039 205.57778595 -133.65576172 207.12025452 C-131.18840043 208.13919894 -128.70537332 209.11151458 -126.21826172 210.08119202 C-123.87435856 211.03161617 -121.6209647 212.08577256 -119.34326172 213.18275452 C-113.70272626 215.74940105 -107.70136366 216.88683959 -101.65576172 218.12025452 C-101.65576172 218.78025452 -101.65576172 219.44025452 -101.65576172 220.12025452 C-97.69576172 220.45025452 -93.73576172 220.78025452 -89.65576172 221.12025452 C-89.65576172 221.78025452 -89.65576172 222.44025452 -89.65576172 223.12025452 C-88.51236328 223.18084045 -87.36896484 223.24142639 -86.19091797 223.30384827 C-84.70001867 223.38823879 -83.20913397 223.47288753 -81.71826172 223.55775452 C-80.96351563 223.59707092 -80.20876953 223.63638733 -79.43115234 223.67689514 C-73.76904297 224.00697327 -73.76904297 224.00697327 -72.65576172 225.12025452 C-60.43366577 226.44377025 -48.16356689 226.38896551 -35.90576172 225.68275452 C-35.20136963 225.64359924 -34.49697754 225.60444397 -33.77124023 225.56410217 C-30.42455652 225.61370504 -30.42455652 225.61370504 -27.65576172 224.12025452 C-25.12979913 223.88371929 -22.62468965 223.6985176 -20.09326172 223.55775452 C-19.38234375 223.51457092 -18.67142578 223.47138733 -17.93896484 223.42689514 C-16.1781426 223.32053675 -14.41697852 223.21986606 -12.65576172 223.12025452 C-12.65576172 222.46025452 -12.65576172 221.80025452 -12.65576172 221.12025452 C-9.02576172 220.79025452 -5.39576172 220.46025452 -1.65576172 220.12025452 C-1.65576172 219.46025452 -1.65576172 218.80025452 -1.65576172 218.12025452 C-0.98931641 217.96169983 -0.32287109 217.80314514 0.36376953 217.63978577 C6.62100962 216.05578513 12.24119878 213.96172311 18.03173828 211.10853577 C20.34423828 210.12025452 20.34423828 210.12025452 23.34423828 210.12025452 C23.34423828 209.46025452 23.34423828 208.80025452 23.34423828 208.12025452 C24.45798828 207.72837952 25.57173828 207.33650452 26.71923828 206.93275452 C31.04858785 205.32757678 35.07278817 203.27570442 39.14501953 201.10853577 C41.34423828 200.12025452 41.34423828 200.12025452 44.34423828 200.12025452 C44.34423828 199.46025452 44.34423828 198.80025452 44.34423828 198.12025452 C44.94236328 197.83150452 45.54048828 197.54275452 46.15673828 197.24525452 C48.5375162 196.07283426 48.5375162 196.07283426 51.34423828 194.12025452 C53.53173828 193.49525452 53.53173828 193.49525452 55.34423828 193.12025452 C55.34423828 192.46025452 55.34423828 191.80025452 55.34423828 191.12025452 C56.66423828 190.79025452 57.98423828 190.46025452 59.34423828 190.12025452 C59.34423828 189.46025452 59.34423828 188.80025452 59.34423828 188.12025452 C63.81482652 184.12025452 63.81482652 184.12025452 66.34423828 184.12025452 C66.34423828 183.46025452 66.34423828 182.80025452 66.34423828 182.12025452 C67.81298828 180.74525452 67.81298828 180.74525452 69.84423828 179.12025452 C74.10332181 175.53565219 77.35387152 171.50777662 80.68017578 167.06166077 C81.22931641 166.4209967 81.77845703 165.78033264 82.34423828 165.12025452 C83.00423828 165.12025452 83.66423828 165.12025452 84.34423828 165.12025452 C84.67423828 163.80025452 85.00423828 162.48025452 85.34423828 161.12025452 C86.00423828 161.12025452 86.66423828 161.12025452 87.34423828 161.12025452 C88.48767388 158.91505728 89.4764975 156.76480787 90.34423828 154.43275452 C91.34423828 152.12025452 91.34423828 152.12025452 93.34423828 151.12025452 C94.39650556 149.14725336 95.39212716 147.14349064 96.34423828 145.12025452 C97.01090495 143.78692118 97.67757161 142.45358785 98.34423828 141.12025452 C99.00423828 141.12025452 99.66423828 141.12025452 100.34423828 141.12025452 C100.44736328 140.25400452 100.55048828 139.38775452 100.65673828 138.49525452 C101.38154937 134.937091 102.67233248 132.32474063 104.34423828 129.12025452 C105.03060453 126.88500417 105.03060453 126.88500417 105.34423828 125.12025452 C106.00423828 125.12025452 106.66423828 125.12025452 107.34423828 125.12025452 C107.67423828 122.81025452 108.00423828 120.50025452 108.34423828 118.12025452 C109.00423828 118.12025452 109.66423828 118.12025452 110.34423828 118.12025452 C110.67423828 115.15025452 111.00423828 112.18025452 111.34423828 109.12025452 C112.00423828 109.12025452 112.66423828 109.12025452 113.34423828 109.12025452 C113.44736328 107.92400452 113.55048828 106.72775452 113.65673828 105.49525452 C114.2384577 100.15018042 115.41407212 94.97857234 116.62548828 89.74525452 C117.18306881 86.93310923 117.58646477 84.23617061 117.88916016 81.39369202 C117.97548706 80.59108948 118.06181396 79.78848694 118.15075684 78.96156311 C118.21460571 78.35393127 118.27845459 77.74629944 118.34423828 77.12025452 C98.89809817 77.0499875 79.45198403 76.99718 60.00574303 76.964818 C50.97530228 76.94938838 41.9449407 76.92837407 32.91455078 76.89393616 C25.03818442 76.86391365 17.16187543 76.84465118 9.28545344 76.83798903 C5.11991113 76.83409841 0.95453285 76.82503762 -3.21095657 76.80306435 C-7.14257671 76.78249545 -11.07396737 76.77646128 -15.00563622 76.78093147 C-16.43816951 76.78011529 -17.87071158 76.77427228 -19.30319786 76.76263809 C-27.75769387 76.69742056 -35.43348956 77.42322429 -43.64816856 79.4759779 C-46.4307462 80.07205244 -48.82368213 80.24469557 -51.65576172 80.12025452 C-51.65576172 80.78025452 -51.65576172 81.44025452 -51.65576172 82.12025452 C-56.60576172 82.61525452 -56.60576172 82.61525452 -61.65576172 83.12025452 C-61.65576172 83.78025452 -61.65576172 84.44025452 -61.65576172 85.12025452 C-62.28740234 85.26720764 -62.91904297 85.41416077 -63.56982422 85.56556702 C-74.69321384 88.35442839 -86.07690098 92.73434735 -95.65576172 99.12025452 C-96.99901595 99.84906968 -98.35392609 100.5567113 -99.71826172 101.24525452 C-100.41048828 101.59845764 -101.10271484 101.95166077 -101.81591797 102.31556702 C-103.65576172 103.12025452 -103.65576172 103.12025452 -105.65576172 103.12025452 C-105.65576172 103.78025452 -105.65576172 104.44025452 -105.65576172 105.12025452 C-107.30576172 105.45025452 -108.95576172 105.78025452 -110.65576172 106.12025452 C-110.65576172 106.78025452 -110.65576172 107.44025452 -110.65576172 108.12025452 C-111.97576172 108.45025452 -113.29576172 108.78025452 -114.65576172 109.12025452 C-114.65576172 109.78025452 -114.65576172 110.44025452 -114.65576172 111.12025452 C-117.61763444 113.29229451 -120.16262163 114.95587449 -123.65576172 116.12025452 C-123.65576172 116.78025452 -123.65576172 117.44025452 -123.65576172 118.12025452 C-124.29513672 118.22337952 -124.93451172 118.32650452 -125.59326172 118.43275452 C-126.27388672 118.65962952 -126.95451172 118.88650452 -127.65576172 119.12025452 C-128.15076172 120.60525452 -128.15076172 120.60525452 -128.65576172 122.12025452 C-130.31364957 123.46448791 -131.98152489 124.79643935 -133.65576172 126.12025452 C-134.29513672 126.92462952 -134.93451172 127.72900452 -135.59326172 128.55775452 C-137.65576172 131.12025452 -137.65576172 131.12025452 -140.59326172 133.43275452 C-143.66279607 135.87758464 -145.40464235 138.64203031 -147.28466797 142.05775452 C-148.65576172 144.12025452 -148.65576172 144.12025452 -151.04638672 146.44447327 C-153.87655083 149.34666251 -155.84695396 152.44213452 -157.84326172 155.93275452 C-159.05774851 158.05296027 -160.30288666 160.08048925 -161.65576172 162.12025452 C-162.31576172 162.12025452 -162.97576172 162.12025452 -163.65576172 162.12025452 C-164.15076172 165.09025452 -164.15076172 165.09025452 -164.65576172 168.12025452 C-165.31576172 168.12025452 -165.97576172 168.12025452 -166.65576172 168.12025452 C-166.92388672 168.94525452 -167.19201172 169.77025452 -167.46826172 170.62025452 C-168.78101094 174.48941012 -170.20677456 178.30019745 -171.65576172 182.12025452 C-172.31576172 182.12025452 -172.97576172 182.12025452 -173.65576172 182.12025452 C-173.77048828 182.99166077 -173.88521484 183.86306702 -174.00341797 184.76087952 C-174.65568369 188.11985271 -175.67916455 190.76511533 -177.09326172 193.87025452 C-179.41069757 199.2284877 -180.80145627 204.35688047 -181.65576172 210.12025452 C-182.31576172 210.12025452 -182.97576172 210.12025452 -183.65576172 210.12025452 C-183.70474609 210.90529358 -183.75373047 211.69033264 -183.80419922 212.49916077 C-184.2205148 218.34911246 -185.04336803 223.47687661 -186.65576172 229.12025452 C-187.11007546 233.11316754 -187.40552039 237.10980799 -187.65576172 241.12025452 C-188.97576172 241.12025452 -190.29576172 241.12025452 -191.65576172 241.12025452 C-192.0953987 190.44701937 -192.0953987 190.44701937 -189.65576172 173.12025452 C-189.32576172 172.79025452 -188.99576172 172.46025452 -188.65576172 172.12025452 C-188.25826872 169.77301485 -187.91207449 167.41696903 -187.59326172 165.05775452 C-187.41666016 163.76740295 -187.24005859 162.47705139 -187.05810547 161.14759827 C-186.92533203 160.14857483 -186.79255859 159.14955139 -186.65576172 158.12025452 C-185.99576172 158.12025452 -185.33576172 158.12025452 -184.65576172 158.12025452 C-184.61837891 157.44220764 -184.58099609 156.76416077 -184.54248047 156.06556702 C-183.85932662 146.39425168 -181.06859357 138.1177203 -177.65576172 129.12025452 C-177.30599413 127.79113769 -176.96824533 126.45862774 -176.65576172 125.12025452 C-175.99576172 125.12025452 -175.33576172 125.12025452 -174.65576172 125.12025452 C-174.32576172 122.81025452 -173.99576172 120.50025452 -173.65576172 118.12025452 C-172.99576172 118.12025452 -172.33576172 118.12025452 -171.65576172 118.12025452 C-171.32576172 116.14025452 -170.99576172 114.16025452 -170.65576172 112.12025452 C-169.99576172 112.12025452 -169.33576172 112.12025452 -168.65576172 112.12025452 C-168.57326172 111.27462952 -168.49076172 110.42900452 -168.40576172 109.55775452 C-167.49842319 105.39911961 -165.89034899 102.72442753 -163.65576172 99.12025452 C-162.99576172 99.12025452 -162.33576172 99.12025452 -161.65576172 99.12025452 C-161.53201172 98.15087952 -161.40826172 97.18150452 -161.28076172 96.18275452 C-161.07451172 95.17212952 -160.86826172 94.16150452 -160.65576172 93.12025452 C-159.66576172 92.62525452 -159.66576172 92.62525452 -158.65576172 92.12025452 C-158.16076172 90.63525452 -158.16076172 90.63525452 -157.65576172 89.12025452 C-156.99576172 88.79025452 -156.33576172 88.46025452 -155.65576172 88.12025452 C-154.63438715 86.46660045 -153.63963877 84.7964895 -152.65576172 83.12025452 C-151.81744817 81.83890817 -150.96258269 80.56826993 -150.09326172 79.30775452 C-149.67947266 78.7031842 -149.26568359 78.09861389 -148.83935547 77.47572327 C-148.44876953 77.02841858 -148.05818359 76.58111389 -147.65576172 76.12025452 C-146.99576172 76.12025452 -146.33576172 76.12025452 -145.65576172 76.12025452 C-145.16076172 74.14025452 -145.16076172 74.14025452 -144.65576172 72.12025452 C-143.99576172 72.12025452 -143.33576172 72.12025452 -142.65576172 72.12025452 C-142.49076172 71.43962952 -142.32576172 70.75900452 -142.15576172 70.05775452 C-140.27975019 66.38389861 -137.82740847 64.49783446 -134.68310547 61.89369202 C-132.85447205 60.2940782 -131.39845813 58.7143138 -129.90576172 56.80775452 C-127.77449101 54.26207006 -126.59989312 53.39604479 -123.65576172 52.12025452 C-123.11951172 51.58400452 -122.58326172 51.04775452 -122.03076172 50.49525452 C-121.57701172 50.04150452 -121.12326172 49.58775452 -120.65576172 49.12025452 C-119.99576172 49.12025452 -119.33576172 49.12025452 -118.65576172 49.12025452 C-118.65576172 48.46025452 -118.65576172 47.80025452 -118.65576172 47.12025452 C-116.68285584 44.77155705 -115.6526931 44.11923164 -112.65576172 43.12025452 C-112.16076172 42.13025452 -112.16076172 42.13025452 -111.65576172 41.12025452 C-108.08986483 39.17521985 -104.44748604 37.57003146 -100.65576172 36.12025452 C-100.65576172 35.46025452 -100.65576172 34.80025452 -100.65576172 34.12025452 C-86.941476 26.12025452 -86.941476 26.12025452 -83.65576172 26.12025452 C-83.65576172 25.46025452 -83.65576172 24.80025452 -83.65576172 24.12025452 C-81.67576172 23.79025452 -79.69576172 23.46025452 -77.65576172 23.12025452 C-77.65576172 22.46025452 -77.65576172 21.80025452 -77.65576172 21.12025452 C-75.67576172 20.79025452 -73.69576172 20.46025452 -71.65576172 20.12025452 C-71.65576172 19.46025452 -71.65576172 18.80025452 -71.65576172 18.12025452 C-70.98029297 17.92689514 -70.30482422 17.73353577 -69.60888672 17.53431702 C-68.27083984 17.14373108 -68.27083984 17.14373108 -66.90576172 16.74525452 C-66.02404297 16.49002014 -65.14232422 16.23478577 -64.23388672 15.97181702 C-61.68335843 15.20924315 -61.68335843 15.20924315 -59.57763672 14.01869202 C-57.65576172 13.12025452 -57.65576172 13.12025452 -53.65576172 13.12025452 C-53.65576172 12.46025452 -53.65576172 11.80025452 -53.65576172 11.12025452 C-49.20076172 10.62525452 -49.20076172 10.62525452 -44.65576172 10.12025452 C-44.65576172 9.46025452 -44.65576172 8.80025452 -44.65576172 8.12025452 C-43.99189453 7.99908264 -43.32802734 7.87791077 -42.64404297 7.75306702 C-41.76103516 7.58548889 -40.87802734 7.41791077 -39.96826172 7.24525452 C-39.09814453 7.08283264 -38.22802734 6.92041077 -37.33154297 6.75306702 C-34.64853814 6.19729201 -34.64853814 6.19729201 -32.21826172 5.08900452 C-29.20616068 3.95028339 -26.55074384 3.70673685 -23.34326172 3.49525452 C-22.27462891 3.42048889 -21.20599609 3.34572327 -20.10498047 3.26869202 C-19.29673828 3.21970764 -18.48849609 3.17072327 -17.65576172 3.12025452 C-17.65576172 2.46025452 -17.65576172 1.80025452 -17.65576172 1.12025452 C-11.72458423 0.26025223 -5.98825375 -0.02010181 0 0 Z " fill="#D1D1D1" transform="translate(222.65576171875,165.87974548339844)"/>
<path d="M0 0 C2.12861184 -0.00107488 4.25722339 -0.00301662 6.38583374 -0.00575256 C12.12705649 -0.01056906 17.86820062 -0.00298676 23.60941386 0.00720048 C29.63190661 0.016028 35.65439724 0.01422267 41.67689514 0.01383972 C51.77988998 0.01477388 61.88285464 0.02342673 71.98583984 0.03710938 C83.66030157 0.05286201 95.33473035 0.0581063 107.00920194 0.05737382 C119.45884527 0.05669826 131.90847593 0.06363649 144.35811543 0.07282043 C147.93944233 0.07494986 151.52076718 0.07566133 155.10209465 0.07605934 C160.727091 0.07706446 166.35205974 0.08317494 171.97704697 0.09322548 C174.03980274 0.09614331 176.10256169 0.0973773 178.16531944 0.09679794 C180.98226674 0.09630618 183.79913705 0.10197332 186.61607361 0.10920715 C187.43046982 0.10765855 188.24486604 0.10610995 189.08394092 0.10451442 C193.69159553 0.12403245 198.05564831 0.48227024 202.60180664 1.24291992 C202.98478536 19.58334545 202.98478536 19.58334545 200.60180664 28.24291992 C199.94180664 28.24291992 199.28180664 28.24291992 198.60180664 28.24291992 C198.49868164 29.43916992 198.39555664 30.63541992 198.28930664 31.86791992 C197.81289312 35.80533752 196.59049948 38.78432367 194.60180664 42.24291992 C193.94180664 42.24291992 193.28180664 42.24291992 192.60180664 42.24291992 C192.36075195 43.1065918 192.11969727 43.97026367 191.87133789 44.86010742 C190.47365723 48.58438882 188.69412891 51.20729637 186.28930664 54.36791992 C185.53004883 55.38112305 184.77079102 56.39432617 183.98852539 57.43823242 C181.70249754 60.12459576 179.41932513 62.1390492 176.60180664 64.24291992 C175.71493164 64.98541992 174.82805664 65.72791992 173.91430664 66.49291992 C171.60180664 68.24291992 171.60180664 68.24291992 169.60180664 68.24291992 C169.60180664 68.90291992 169.60180664 69.56291992 169.60180664 70.24291992 C168.28180664 70.57291992 166.96180664 70.90291992 165.60180664 71.24291992 C165.60180664 71.90291992 165.60180664 72.56291992 165.60180664 73.24291992 C161.67588068 75.29935733 157.8361042 76.93230401 153.60180664 78.24291992 C153.60180664 78.90291992 153.60180664 79.56291992 153.60180664 80.24291992 C151.62180664 80.57291992 149.64180664 80.90291992 147.60180664 81.24291992 C147.60180664 81.90291992 147.60180664 82.56291992 147.60180664 83.24291992 C144.13680664 83.73791992 144.13680664 83.73791992 140.60180664 84.24291992 C140.60180664 84.90291992 140.60180664 85.56291992 140.60180664 86.24291992 C139.4068457 86.53295898 139.4068457 86.53295898 138.18774414 86.82885742 C131.61855372 88.43030689 131.61855372 88.43030689 125.16430664 90.43041992 C122.49974152 91.27528203 120.37887943 91.40627714 117.60180664 91.24291992 C117.60180664 91.90291992 117.60180664 92.56291992 117.60180664 93.24291992 C109.68180664 93.73791992 109.68180664 93.73791992 101.60180664 94.24291992 C101.60180664 94.90291992 101.60180664 95.56291992 101.60180664 96.24291992 C101.02995164 96.24715186 100.45809664 96.2513838 99.8689127 96.25574398 C85.87635102 96.35959525 71.88383392 96.4683077 57.89135075 96.58225918 C51.12436031 96.63725387 44.35736464 96.69067553 37.59033203 96.74023438 C31.04800982 96.78815216 24.50573345 96.84066473 17.96346855 96.89586067 C15.47950853 96.91608934 12.99553591 96.93483177 10.51155281 96.95199394 C-6.0004526 97.05725711 -6.0004526 97.05725711 -22.49804688 97.70019531 C-23.19879554 97.73822738 -23.8995442 97.77625944 -24.62152767 97.81544399 C-27.79049588 97.787911 -27.79049588 97.787911 -30.39819336 99.24291992 C-31.94553415 99.51625481 -33.50281449 99.73385306 -35.06225586 99.92651367 C-36.0200293 100.04961914 -36.97780273 100.17272461 -37.96459961 100.29956055 C-39.98010372 100.55053328 -41.99572635 100.80055635 -44.01147461 101.04956055 C-49.33467858 101.7353939 -54.27038301 102.67290703 -59.39819336 104.24291992 C-62.33569336 104.36791992 -62.33569336 104.36791992 -64.39819336 104.24291992 C-64.39819336 104.90291992 -64.39819336 105.56291992 -64.39819336 106.24291992 C-67.03819336 106.90291992 -69.67819336 107.56291992 -72.39819336 108.24291992 C-72.39819336 108.57291992 -72.39819336 108.90291992 -72.39819336 109.24291992 C-73.51967773 109.53295898 -73.51967773 109.53295898 -74.66381836 109.82885742 C-75.64866211 110.08924805 -76.63350586 110.34963867 -77.64819336 110.61791992 C-78.62272461 110.8731543 -79.59725586 111.12838867 -80.60131836 111.39135742 C-83.35189878 112.1407259 -83.35189878 112.1407259 -85.57006836 113.34448242 C-87.39819336 114.24291992 -87.39819336 114.24291992 -90.39819336 114.24291992 C-90.39819336 114.90291992 -90.39819336 115.56291992 -90.39819336 116.24291992 C-92.37819336 116.57291992 -94.35819336 116.90291992 -96.39819336 117.24291992 C-96.39819336 117.90291992 -96.39819336 118.56291992 -96.39819336 119.24291992 C-98.04819336 119.57291992 -99.69819336 119.90291992 -101.39819336 120.24291992 C-101.39819336 120.90291992 -101.39819336 121.56291992 -101.39819336 122.24291992 C-103.02069277 123.0811115 -104.64627833 123.91333152 -106.27319336 124.74291992 C-107.63057617 125.43901367 -107.63057617 125.43901367 -109.01538086 126.14916992 C-111.39819336 127.24291992 -111.39819336 127.24291992 -113.39819336 127.24291992 C-113.39819336 127.90291992 -113.39819336 128.56291992 -113.39819336 129.24291992 C-114.71819336 129.57291992 -116.03819336 129.90291992 -117.39819336 130.24291992 C-117.39819336 130.90291992 -117.39819336 131.56291992 -117.39819336 132.24291992 C-119.37819336 132.90291992 -121.35819336 133.56291992 -123.39819336 134.24291992 C-123.39819336 134.90291992 -123.39819336 135.56291992 -123.39819336 136.24291992 C-124.30569336 136.84104492 -125.21319336 137.43916992 -126.14819336 138.05541992 C-129.43297104 140.03100965 -129.43297104 140.03100965 -131.39819336 142.74291992 C-134.404486 146.50078572 -137.85101428 148.72719356 -142.39819336 150.24291992 C-142.72819336 151.23291992 -143.05819336 152.22291992 -143.39819336 153.24291992 C-144.05819336 153.24291992 -144.71819336 153.24291992 -145.39819336 153.24291992 C-145.67018555 153.82041992 -145.94217773 154.39791992 -146.22241211 154.99291992 C-147.39888381 157.24424118 -148.70035005 159.20256168 -150.21069336 161.24291992 C-150.93192383 162.23291992 -150.93192383 162.23291992 -151.66772461 163.24291992 C-153.39819336 165.24291992 -153.39819336 165.24291992 -155.83959961 167.15307617 C-158.62249224 169.42612588 -160.45182673 171.75207611 -162.52319336 174.68041992 C-163.18577148 175.60725586 -163.84834961 176.5340918 -164.53100586 177.48901367 C-165.75511216 179.29444241 -166.92007962 181.14172404 -168.01538086 183.02807617 C-169.39819336 185.24291992 -169.39819336 185.24291992 -171.39819336 186.24291992 C-172.1197876 187.88655126 -172.79170757 189.55342378 -173.39819336 191.24291992 C-174.05819336 191.24291992 -174.71819336 191.24291992 -175.39819336 191.24291992 C-175.72819336 192.89291992 -176.05819336 194.54291992 -176.39819336 196.24291992 C-177.05819336 196.24291992 -177.71819336 196.24291992 -178.39819336 196.24291992 C-178.72819336 197.89291992 -179.05819336 199.54291992 -179.39819336 201.24291992 C-180.05819336 201.24291992 -180.71819336 201.24291992 -181.39819336 201.24291992 C-181.5206543 201.80495117 -181.64311523 202.36698242 -181.76928711 202.94604492 C-182.45018026 205.43278511 -183.3917166 207.64806769 -184.46069336 209.99291992 C-185.0040332 211.19174805 -185.0040332 211.19174805 -185.55834961 212.41479492 C-185.83549805 213.01807617 -186.11264648 213.62135742 -186.39819336 214.24291992 C-187.05819336 214.24291992 -187.71819336 214.24291992 -188.39819336 214.24291992 C-188.72819336 215.89291992 -189.05819336 217.54291992 -189.39819336 219.24291992 C-190.05819336 219.24291992 -190.71819336 219.24291992 -191.39819336 219.24291992 C-191.50131836 220.25354492 -191.60444336 221.26416992 -191.71069336 222.30541992 C-192.42263305 226.3828927 -193.6850586 229.48720142 -195.39819336 233.24291992 C-195.95245401 234.63380043 -196.49406484 236.02978561 -197.02319336 237.43041992 C-197.3828418 238.37981445 -197.3828418 238.37981445 -197.74975586 239.34838867 C-198.41578714 241.29432345 -198.92779788 243.24152027 -199.39819336 245.24291992 C-200.05819336 245.24291992 -200.71819336 245.24291992 -201.39819336 245.24291992 C-201.39819336 246.56291992 -201.39819336 247.88291992 -201.39819336 249.24291992 C-202.71819336 249.24291992 -204.03819336 249.24291992 -205.39819336 249.24291992 C-206.36249785 237.85436186 -206.58445501 226.51926152 -206.58349609 215.09375 C-206.58567175 212.20907577 -206.60387197 209.3247921 -206.62280273 206.44018555 C-206.66169126 193.42415382 -206.53871966 180.11661382 -204.39819336 167.24291992 C-204.06819336 166.91291992 -203.73819336 166.58291992 -203.39819336 166.24291992 C-203.00070036 163.89568026 -202.65450613 161.53963444 -202.33569336 159.18041992 C-202.1590918 157.89006836 -201.98249023 156.5997168 -201.80053711 155.27026367 C-201.66776367 154.27124023 -201.53499023 153.2722168 -201.39819336 152.24291992 C-200.73819336 152.24291992 -200.07819336 152.24291992 -199.39819336 152.24291992 C-199.06819336 148.94291992 -198.73819336 145.64291992 -198.39819336 142.24291992 C-197.73819336 142.24291992 -197.07819336 142.24291992 -196.39819336 142.24291992 C-196.29506836 140.94354492 -196.19194336 139.64416992 -196.08569336 138.30541992 C-195.47022226 132.66806141 -193.93803289 127.32259897 -191.39819336 122.24291992 C-190.73819336 122.24291992 -190.07819336 122.24291992 -189.39819336 122.24291992 C-189.06819336 119.60291992 -188.73819336 116.96291992 -188.39819336 114.24291992 C-187.73819336 114.24291992 -187.07819336 114.24291992 -186.39819336 114.24291992 C-186.06819336 112.59291992 -185.73819336 110.94291992 -185.39819336 109.24291992 C-184.73819336 109.24291992 -184.07819336 109.24291992 -183.39819336 109.24291992 C-183.25381836 108.29416992 -183.10944336 107.34541992 -182.96069336 106.36791992 C-182.39819336 103.24291992 -182.39819336 103.24291992 -181.39819336 101.24291992 C-180.73819336 101.24291992 -180.07819336 101.24291992 -179.39819336 101.24291992 C-179.06819336 99.59291992 -178.73819336 97.94291992 -178.39819336 96.24291992 C-177.73819336 96.24291992 -177.07819336 96.24291992 -176.39819336 96.24291992 C-176.27444336 95.43854492 -176.15069336 94.63416992 -176.02319336 93.80541992 C-175.71381836 92.53698242 -175.71381836 92.53698242 -175.39819336 91.24291992 C-174.40819336 90.74791992 -174.40819336 90.74791992 -173.39819336 90.24291992 C-172.90319336 88.75791992 -172.90319336 88.75791992 -172.39819336 87.24291992 C-171.73819336 86.91291992 -171.07819336 86.58291992 -170.39819336 86.24291992 C-169.37681879 84.58926586 -168.38207041 82.9191549 -167.39819336 81.24291992 C-164.44052901 76.76036979 -161.25582695 73.00163983 -157.39819336 69.24291992 C-156.73819336 68.39729492 -156.07819336 67.55166992 -155.39819336 66.68041992 C-153.28528121 64.10530824 -151.03174348 62.26872771 -148.39819336 60.24291992 C-147.84131836 59.66541992 -147.28444336 59.08791992 -146.71069336 58.49291992 C-145.39819336 57.24291992 -145.39819336 57.24291992 -143.39819336 57.24291992 C-143.06819336 56.25291992 -142.73819336 55.26291992 -142.39819336 54.24291992 C-141.73819336 54.24291992 -141.07819336 54.24291992 -140.39819336 54.24291992 C-140.06819336 53.25291992 -139.73819336 52.26291992 -139.39819336 51.24291992 C-136.99975586 49.27026367 -136.99975586 49.27026367 -134.02319336 47.18041992 C-133.04608398 46.48819336 -132.06897461 45.7959668 -131.06225586 45.08276367 C-129.18536351 43.78655209 -127.29608701 42.50818236 -125.39819336 41.24291992 C-124.38756836 40.54166992 -123.37694336 39.84041992 -122.33569336 39.11791992 C-119.39819336 37.24291992 -119.39819336 37.24291992 -117.39819336 37.24291992 C-117.39819336 36.58291992 -117.39819336 35.92291992 -117.39819336 35.24291992 C-116.40819336 34.91291992 -115.41819336 34.58291992 -114.39819336 34.24291992 C-113.90319336 33.25291992 -113.90319336 33.25291992 -113.39819336 32.24291992 C-111.74380723 31.54633629 -110.07565018 30.88195109 -108.39819336 30.24291992 C-107.40819336 29.58291992 -106.41819336 28.92291992 -105.39819336 28.24291992 C-104.0766298 27.51286263 -102.74243932 26.80531842 -101.39819336 26.11791992 C-100.71756836 25.7647168 -100.03694336 25.41151367 -99.33569336 25.04760742 C-97.39819336 24.24291992 -97.39819336 24.24291992 -94.39819336 24.24291992 C-94.39819336 23.58291992 -94.39819336 22.92291992 -94.39819336 22.24291992 C-92.41819336 21.91291992 -90.43819336 21.58291992 -88.39819336 21.24291992 C-88.39819336 20.58291992 -88.39819336 19.92291992 -88.39819336 19.24291992 C-87.72272461 19.04956055 -87.04725586 18.85620117 -86.35131836 18.65698242 C-85.01327148 18.26639648 -85.01327148 18.26639648 -83.64819336 17.86791992 C-82.76647461 17.61268555 -81.88475586 17.35745117 -80.97631836 17.09448242 C-78.42579007 16.33190856 -78.42579007 16.33190856 -76.32006836 15.14135742 C-74.39819336 14.24291992 -74.39819336 14.24291992 -70.39819336 14.24291992 C-70.39819336 13.58291992 -70.39819336 12.92291992 -70.39819336 12.24291992 C-67.75819336 11.91291992 -65.11819336 11.58291992 -62.39819336 11.24291992 C-62.39819336 10.58291992 -62.39819336 9.92291992 -62.39819336 9.24291992 C-57.44819336 8.74791992 -57.44819336 8.74791992 -52.39819336 8.24291992 C-52.39819336 7.58291992 -52.39819336 6.92291992 -52.39819336 6.24291992 C-51.25479492 6.03795898 -50.11139648 5.83299805 -48.93334961 5.62182617 C-47.44242659 5.34989682 -45.9515432 5.07775018 -44.46069336 4.80541992 C-43.70594727 4.67071289 -42.95120117 4.53600586 -42.17358398 4.3972168 C-38.47866162 4.00019958 -38.47866162 4.00019958 -35.39819336 2.24291992 C-23.71844952 -0.31150608 -11.88149166 -0.03505727 0 0 Z " fill="#C9C9C9" transform="translate(237.398193359375,36.757080078125)"/>
<path d="M0 0 C0.99 0.495 0.99 0.495 2 1 C0.89591797 2.34191406 0.89591797 2.34191406 -0.23046875 3.7109375 C-5.72131642 10.4744671 -10.63948308 16.89448353 -14 25 C-14.41636719 25.91265625 -14.83273438 26.8253125 -15.26171875 27.765625 C-20.4893844 40.01060761 -22.85056598 53.62723648 -23.54980469 66.88208008 C-24.10087398 69.47455626 -24.96863706 70.34690367 -27 72 C-28.49152027 72.9438319 -30.01500858 73.83854671 -31.5625 74.6875 C-32.34753906 75.12449219 -33.13257813 75.56148438 -33.94140625 76.01171875 C-36 77 -36 77 -38 77 C-38 77.66 -38 78.32 -38 79 C-38.66 79 -39.32 79 -40 79 C-40 79.66 -40 80.32 -40 81 C-41.65 81.66 -43.3 82.32 -45 83 C-45 83.66 -45 84.32 -45 85 C-46.6171875 86.41015625 -46.6171875 86.41015625 -48.875 88.0625 C-61.84248486 97.89005928 -71.61912074 109.53817043 -81.4375 122.375 C-81.99759766 123.10460937 -82.55769531 123.83421875 -83.13476562 124.5859375 C-89.96872846 133.41248703 -89.96872846 133.41248703 -95.75 142.9375 C-97.47777102 146.18535602 -99.22488569 149.41316696 -101.06640625 152.59765625 C-110.2192485 168.45464254 -117.62600418 184.84554823 -124 202 C-125.32 201.34 -126.64 200.68 -128 200 C-128.02895976 196.87501937 -128.04678483 193.7500731 -128.0625 190.625 C-128.07087891 189.73554688 -128.07925781 188.84609375 -128.08789062 187.9296875 C-128.09111328 187.07890625 -128.09433594 186.228125 -128.09765625 185.3515625 C-128.10289307 184.56604004 -128.10812988 183.78051758 -128.11352539 182.97119141 C-128 181 -128 181 -127 179 C-126.80271282 177.37959523 -126.65562816 175.75291903 -126.53515625 174.125 C-126.41817383 172.64580078 -126.41817383 172.64580078 -126.29882812 171.13671875 C-126.14363921 169.0769386 -125.98994556 167.01704513 -125.83789062 164.95703125 C-125.16246161 156.46749256 -123.67756091 148.37015269 -121.5625 140.125 C-120.50053129 135.96294081 -119.45984032 131.79697465 -118.4375 127.625 C-117.45450879 123.6826879 -116.38145989 119.82558124 -115 116 C-114.34 116 -113.68 116 -113 116 C-112.89042969 115.25234375 -112.78085938 114.5046875 -112.66796875 113.734375 C-112.50941406 112.74953125 -112.35085937 111.7646875 -112.1875 110.75 C-111.96126953 109.28820312 -111.96126953 109.28820312 -111.73046875 107.796875 C-110.95769635 104.83802453 -109.92037627 103.33330692 -108 101 C-107.30104317 99.36910073 -106.60452052 97.73707263 -105.92578125 96.09765625 C-95.72830794 72.99198887 -76.17751206 49.26069303 -56 34 C-55.34 34 -54.68 34 -54 34 C-54 33.34 -54 32.68 -54 32 C-52.60260741 31.01273474 -51.19664569 30.03551703 -49.75146484 29.11962891 C-48.03486758 28.0222892 -46.38641009 26.86521769 -44.73828125 25.66796875 C-32.67424392 16.92880391 -20.49676144 9.3374886 -7 3 C-6.02450195 2.5369043 -6.02450195 2.5369043 -5.02929688 2.06445312 C-3.38048936 1.31251505 -1.69225173 0.64827554 0 0 Z " fill="#E5E5E5" transform="translate(162,56)"/>
<path d="M0 0 C1.72544351 0.00028241 3.45088713 0.00012308 5.17633057 -0.0004425 C9.83888269 -0.00072836 14.50140886 0.00513408 19.16395497 0.01213145 C24.0446403 0.0184003 28.92532628 0.01897158 33.80601501 0.02015686 C43.03866367 0.02325978 52.27130043 0.03145913 61.50394386 0.04150635 C72.01906576 0.0526998 82.53418824 0.05818607 93.04931462 0.06320179 C114.6708225 0.07364264 136.29231968 0.09122191 157.91381836 0.11352539 C155.02991408 3.81608885 152.16874382 6.70465208 148.47631836 9.61352539 C145.61407987 11.87465399 143.04109346 13.96800404 140.63642025 16.71741295 C137.33931137 19.61913855 135.92722246 19.73700363 131.59828186 19.73257446 C130.32427521 19.74352646 129.05026855 19.75447845 127.73765564 19.76576233 C126.33291213 19.75272607 124.92817277 19.73923737 123.5234375 19.7253418 C122.03803845 19.72888444 120.5526433 19.7346637 119.06726074 19.74250793 C115.8706925 19.75468184 112.67465807 19.75122528 109.47810555 19.73567581 C104.41196352 19.71131672 99.34628657 19.72287421 94.28013611 19.73934937 C85.34054088 19.76384911 76.40115725 19.75804965 67.46154785 19.74554443 C54.03759027 19.72698841 40.61367583 19.7319877 27.18974775 19.76557863 C22.16658473 19.77701627 17.14376337 19.77275644 12.12061989 19.75555825 C8.97547368 19.74758628 5.830424 19.7519588 2.68527985 19.75926781 C1.24146043 19.76006917 -0.20237333 19.75584179 -1.64615822 19.74582481 C-10.12993364 19.68988108 -17.83905126 20.40888655 -26.08225346 22.46968651 C-28.86340666 23.06577751 -31.25544916 23.23781773 -34.08618164 23.11352539 C-34.08618164 23.77352539 -34.08618164 24.43352539 -34.08618164 25.11352539 C-37.38618164 25.44352539 -40.68618164 25.77352539 -44.08618164 26.11352539 C-44.08618164 26.77352539 -44.08618164 27.43352539 -44.08618164 28.11352539 C-45.03364258 28.33395508 -45.03364258 28.33395508 -46.00024414 28.55883789 C-57.12363376 31.34769927 -68.5073209 35.72761823 -78.08618164 42.11352539 C-79.42943587 42.84234056 -80.78434601 43.54998218 -82.14868164 44.23852539 C-82.8409082 44.59172852 -83.53313477 44.94493164 -84.24633789 45.30883789 C-86.08618164 46.11352539 -86.08618164 46.11352539 -88.08618164 46.11352539 C-88.08618164 46.77352539 -88.08618164 47.43352539 -88.08618164 48.11352539 C-89.73618164 48.44352539 -91.38618164 48.77352539 -93.08618164 49.11352539 C-93.08618164 49.77352539 -93.08618164 50.43352539 -93.08618164 51.11352539 C-94.40618164 51.44352539 -95.72618164 51.77352539 -97.08618164 52.11352539 C-97.08618164 52.77352539 -97.08618164 53.43352539 -97.08618164 54.11352539 C-100.04805436 56.28556539 -102.59304155 57.94914536 -106.08618164 59.11352539 C-106.08618164 59.77352539 -106.08618164 60.43352539 -106.08618164 61.11352539 C-107.04524414 61.26821289 -107.04524414 61.26821289 -108.02368164 61.42602539 C-108.70430664 61.65290039 -109.38493164 61.87977539 -110.08618164 62.11352539 C-110.41618164 63.10352539 -110.74618164 64.09352539 -111.08618164 65.11352539 C-112.74406949 66.45775879 -114.41194481 67.78971022 -116.08618164 69.11352539 C-116.72555664 69.91790039 -117.36493164 70.72227539 -118.02368164 71.55102539 C-120.08618164 74.11352539 -120.08618164 74.11352539 -123.02368164 76.42602539 C-126.093216 78.87085552 -127.83506227 81.63530119 -129.71508789 85.05102539 C-131.08618164 87.11352539 -131.08618164 87.11352539 -133.47680664 89.43774414 C-136.30697075 92.33993338 -138.27737389 95.4354054 -140.27368164 98.92602539 C-141.48816843 101.04623114 -142.73330658 103.07376012 -144.08618164 105.11352539 C-144.74618164 105.11352539 -145.40618164 105.11352539 -146.08618164 105.11352539 C-146.41618164 107.09352539 -146.74618164 109.07352539 -147.08618164 111.11352539 C-147.74618164 111.11352539 -148.40618164 111.11352539 -149.08618164 111.11352539 C-149.35430664 111.93852539 -149.62243164 112.76352539 -149.89868164 113.61352539 C-151.21143086 117.482681 -152.63719448 121.29346833 -154.08618164 125.11352539 C-154.74618164 125.11352539 -155.40618164 125.11352539 -156.08618164 125.11352539 C-156.2009082 125.98493164 -156.31563477 126.85633789 -156.43383789 127.75415039 C-157.08610362 131.11312359 -158.10958447 133.7583862 -159.52368164 136.86352539 C-161.84111749 142.22175858 -163.2318762 147.35015135 -164.08618164 153.11352539 C-164.74618164 153.11352539 -165.40618164 153.11352539 -166.08618164 153.11352539 C-166.08618164 155.09352539 -166.08618164 157.07352539 -166.08618164 159.11352539 C-166.74618164 158.78352539 -167.40618164 158.45352539 -168.08618164 158.11352539 C-167.66041262 152.44407481 -166.95598773 147.50296646 -165.08618164 142.11352539 C-164.77923953 140.32441236 -164.4892375 138.53235477 -164.21118164 136.73852539 C-163.45994523 132.41163661 -162.31223289 129.07301014 -160.21508789 125.24243164 C-155.17029417 115.72889331 -151.81164696 105.20172702 -148.08618164 95.11352539 C-147.42618164 95.11352539 -146.76618164 95.11352539 -146.08618164 95.11352539 C-145.85286133 93.95723633 -145.61954102 92.80094727 -145.37915039 91.60961914 C-144.19373395 86.88769301 -142.04923553 83.22036254 -139.39868164 79.17602539 C-138.94734863 78.47364746 -138.49601562 77.77126953 -138.03100586 77.04760742 C-134.6458479 71.83661079 -131.08655004 66.87244668 -127.08618164 62.11352539 C-126.66643066 61.60112305 -126.24667969 61.0887207 -125.81420898 60.56079102 C-108.97887108 40.01875089 -88.68469425 23.49229982 -64.08618164 13.11352539 C-63.1387207 12.65333008 -63.1387207 12.65333008 -62.17211914 12.18383789 C-57.55203722 9.96873012 -53.1286088 9.44511357 -48.08618164 9.11352539 C-48.08618164 8.45352539 -48.08618164 7.79352539 -48.08618164 7.11352539 C-47.08458008 6.84797852 -46.08297852 6.58243164 -45.05102539 6.30883789 C-43.70856843 5.95210108 -42.36612103 5.59532832 -41.02368164 5.23852539 C-40.3669043 5.06450195 -39.71012695 4.89047852 -39.03344727 4.71118164 C-38.37924805 4.5371582 -37.72504883 4.36313477 -37.05102539 4.18383789 C-36.38570801 4.00755859 -35.72039062 3.8312793 -35.03491211 3.6496582 C-33.22967056 3.15300192 -31.44007291 2.6004039 -29.65258789 2.04321289 C-19.95136207 -0.48569373 -9.94539189 -0.02284634 0 0 Z " fill="#828282" transform="translate(205.086181640625,222.886474609375)"/>
<path d="M0 0 C0.22072805 10.81567469 0.25378676 21.35620411 -2 32 C-2.33 32.33 -2.66 32.66 -3 33 C-3.27892208 34.70385013 -3.52181549 36.41361617 -3.75 38.125 C-4.94180049 45.73418772 -7.4141666 52.77545783 -10 60 C-10.66 60 -11.32 60 -12 60 C-12.0825 60.94875 -12.165 61.8975 -12.25 62.875 C-12.83907344 67.11979393 -14.40311547 70.83678811 -16.0625 74.765625 C-17.07620833 77.10287673 -17.07620833 77.10287673 -18 80 C-18.66 80 -19.32 80 -20 80 C-20.28875 80.886875 -20.5775 81.77375 -20.875 82.6875 C-21.83148748 85.50382424 -22.86798946 88.25083156 -24 91 C-24.66 91 -25.32 91 -26 91 C-26.33 92.65 -26.66 94.3 -27 96 C-27.66 96 -28.32 96 -29 96 C-29.27714844 96.73992187 -29.55429687 97.47984375 -29.83984375 98.2421875 C-35.44709103 111.57119954 -47.20820248 122.58674165 -57 133 C-57.64710938 133.68964844 -58.29421875 134.37929688 -58.9609375 135.08984375 C-60.26196838 136.43847332 -61.62305538 137.7289742 -63 139 C-63.66 139 -64.32 139 -65 139 C-65 139.66 -65 140.32 -65 141 C-67.27717375 142.8361401 -69.55779684 144.55593102 -71.9375 146.25 C-72.62465088 146.74508057 -73.31180176 147.24016113 -74.01977539 147.75024414 C-76.0068854 149.17595756 -78.00132587 150.59055763 -80 152 C-81.34578125 152.94939453 -81.34578125 152.94939453 -82.71875 153.91796875 C-86.66547104 156.62091679 -90.64132002 158.94646454 -94.96484375 160.9921875 C-97.23572911 162.11673342 -99.38243227 163.39642774 -101.5625 164.6875 C-105.4620131 166.8945161 -108.54601682 167.7157032 -113 168 C-113 168.66 -113 169.32 -113 170 C-114.84464844 170.50660156 -114.84464844 170.50660156 -116.7265625 171.0234375 C-118.35939802 171.47387489 -119.99220924 171.92440038 -121.625 172.375 C-122.43324219 172.59671875 -123.24148437 172.8184375 -124.07421875 173.046875 C-127.40259327 173.96691348 -130.69184818 174.89239143 -133.953125 176.03125 C-156.93252425 183.33752053 -182.40536508 182.53551241 -206 179 C-207.04285156 178.855625 -208.08570313 178.71125 -209.16015625 178.5625 C-217.88436756 177.24741027 -226.43578384 175.09031816 -235 173 C-235 172.34 -235 171.68 -235 171 C-236.093125 170.938125 -237.18625 170.87625 -238.3125 170.8125 C-244.07703563 170.0680399 -248.83894101 167.55858088 -254 165 C-255.37325772 164.34282935 -256.74698441 163.68663808 -258.12109375 163.03125 C-259.56045452 162.33448627 -260.99925912 161.63657243 -262.4375 160.9375 C-263.12392578 160.60935303 -263.81035156 160.28120605 -264.51757812 159.94311523 C-268.31181515 158.06706541 -271.17321403 156.24610461 -274 153 C-266.37508685 154.04413225 -259.22393662 155.69598116 -251.91015625 158.09765625 C-249.27966813 158.91328411 -246.70851642 159.51615821 -244 160 C-244 160.66 -244 161.32 -244 162 C-240.04 162.33 -236.08 162.66 -232 163 C-232 163.66 -232 164.32 -232 165 C-230.85660156 165.06058594 -229.71320313 165.12117187 -228.53515625 165.18359375 C-227.04425695 165.26798428 -225.55337225 165.35263302 -224.0625 165.4375 C-223.30775391 165.47681641 -222.55300781 165.51613281 -221.77539062 165.55664062 C-216.11328125 165.88671875 -216.11328125 165.88671875 -215 167 C-202.77790405 168.32351574 -190.50780517 168.268711 -178.25 167.5625 C-177.54560791 167.52334473 -176.84121582 167.48418945 -176.11547852 167.44384766 C-172.7687948 167.49345052 -172.7687948 167.49345052 -170 166 C-167.47403741 165.76346477 -164.96892793 165.57826308 -162.4375 165.4375 C-161.72658203 165.39431641 -161.01566406 165.35113281 -160.28320312 165.30664062 C-158.52238088 165.20028223 -156.7612168 165.09961154 -155 165 C-155 164.34 -155 163.68 -155 163 C-151.37 162.67 -147.74 162.34 -144 162 C-144 161.34 -144 160.68 -144 160 C-143.33355469 159.84144531 -142.66710937 159.68289063 -141.98046875 159.51953125 C-135.72322867 157.93553061 -130.1030395 155.84146859 -124.3125 152.98828125 C-122 152 -122 152 -119 152 C-119 151.34 -119 150.68 -119 150 C-117.88625 149.608125 -116.7725 149.21625 -115.625 148.8125 C-111.29565043 147.20732226 -107.27145011 145.1554499 -103.19921875 142.98828125 C-101 142 -101 142 -98 142 C-98 141.34 -98 140.68 -98 140 C-97.401875 139.71125 -96.80375 139.4225 -96.1875 139.125 C-93.80672208 137.95257974 -93.80672208 137.95257974 -91 136 C-88.8125 135.375 -88.8125 135.375 -87 135 C-87 134.34 -87 133.68 -87 133 C-85.68 132.67 -84.36 132.34 -83 132 C-83 131.34 -83 130.68 -83 130 C-78.52941176 126 -78.52941176 126 -76 126 C-76 125.34 -76 124.68 -76 124 C-74.53125 122.625 -74.53125 122.625 -72.5 121 C-68.24091647 117.41539767 -64.99036676 113.3875221 -61.6640625 108.94140625 C-61.11492187 108.30074219 -60.56578125 107.66007812 -60 107 C-59.34 107 -58.68 107 -58 107 C-57.67 105.68 -57.34 104.36 -57 103 C-56.34 103 -55.68 103 -55 103 C-53.8565644 100.79480277 -52.86774078 98.64455335 -52 96.3125 C-51 94 -51 94 -49 93 C-47.94773272 91.02699884 -46.95211112 89.02323613 -46 87 C-45.33333333 85.66666667 -44.66666667 84.33333333 -44 83 C-43.34 83 -42.68 83 -42 83 C-41.896875 82.13375 -41.79375 81.2675 -41.6875 80.375 C-40.96268891 76.81683648 -39.6719058 74.20448611 -38 71 C-37.31363375 68.76474965 -37.31363375 68.76474965 -37 67 C-36.34 67 -35.68 67 -35 67 C-34.67 64.69 -34.34 62.38 -34 60 C-33.34 60 -32.68 60 -32 60 C-31.67 57.03 -31.34 54.06 -31 51 C-30.34 51 -29.68 51 -29 51 C-28.8453125 49.205625 -28.8453125 49.205625 -28.6875 47.375 C-28.09773849 41.95603194 -26.8810653 36.71386444 -25.69921875 31.3984375 C-24.84840169 27.26318139 -24.3623594 23.20336899 -24 19 C-23.34 19 -22.68 19 -22 19 C-21.94070313 18.43023437 -21.88140625 17.86046875 -21.8203125 17.2734375 C-20.64049701 14.00366314 -18.60014851 12.74125974 -15.875 10.625 C-12.49806607 7.97169477 -9.18662814 5.31640654 -6 2.4375 C-3 0 -3 0 0 0 Z " fill="#FDFDFD" transform="translate(365,224)"/>
<path d="M0 0 C0.66 0 1.32 0 2 0 C2.22428282 7.94957992 1.95403042 15.27111181 0 23 C-0.66 23 -1.32 23 -2 23 C-2.103125 24.19625 -2.20625 25.3925 -2.3125 26.625 C-2.78891352 30.5624176 -4.01130716 33.54140375 -6 37 C-6.66 37 -7.32 37 -8 37 C-8.24105469 37.86367187 -8.48210937 38.72734375 -8.73046875 39.6171875 C-10.12814941 43.3414689 -11.90767773 45.96437645 -14.3125 49.125 C-15.07175781 50.13820312 -15.83101562 51.15140625 -16.61328125 52.1953125 C-18.8993091 54.88167583 -21.18248151 56.89612928 -24 59 C-25.3303125 60.11375 -25.3303125 60.11375 -26.6875 61.25 C-29 63 -29 63 -31 63 C-31 63.66 -31 64.32 -31 65 C-32.32 65.33 -33.64 65.66 -35 66 C-35 66.66 -35 67.32 -35 68 C-38.92592596 70.05643741 -42.76570244 71.68938409 -47 73 C-47 73.66 -47 74.32 -47 75 C-49.97 75.495 -49.97 75.495 -53 76 C-53 76.66 -53 77.32 -53 78 C-56.465 78.495 -56.465 78.495 -60 79 C-60 79.66 -60 80.32 -60 81 C-60.79664063 81.19335938 -61.59328125 81.38671875 -62.4140625 81.5859375 C-68.98325292 83.18738697 -68.98325292 83.18738697 -75.4375 85.1875 C-78.10206512 86.03236211 -80.22292721 86.16335722 -83 86 C-83 86.66 -83 87.32 -83 88 C-90.92 88.495 -90.92 88.495 -99 89 C-99 89.66 -99 90.32 -99 91 C-99.571855 91.00423194 -100.14371 91.00846388 -100.73289394 91.01282406 C-114.72545562 91.11667533 -128.71797272 91.22538778 -142.71045589 91.33933926 C-149.47744633 91.39433395 -156.244442 91.4477556 -163.01147461 91.49731445 C-169.55379682 91.54523224 -176.09607319 91.59774481 -182.63833809 91.65294075 C-185.12229811 91.67316942 -187.60627073 91.69191184 -190.09025383 91.70907402 C-206.60225924 91.81433719 -206.60225924 91.81433719 -223.09985352 92.45727539 C-223.80060218 92.49530746 -224.50135084 92.53333952 -225.22333431 92.57252407 C-228.39230252 92.54499108 -228.39230252 92.54499108 -231 94 C-232.54734079 94.27333489 -234.10462113 94.49093314 -235.6640625 94.68359375 C-237.10072266 94.86825195 -237.10072266 94.86825195 -238.56640625 95.05664062 C-240.58191036 95.30761336 -242.59753299 95.55763643 -244.61328125 95.80664062 C-249.93648522 96.49247398 -254.87218965 97.42998711 -260 99 C-262.9375 99.125 -262.9375 99.125 -265 99 C-262.06704662 96.06704662 -258.49945245 95.81844452 -254.5625 95 C-253.74571777 94.82557373 -252.92893555 94.65114746 -252.08740234 94.47143555 C-249.72676623 93.97159387 -247.36398971 93.48369818 -245 93 C-243.93910156 92.77957031 -242.87820312 92.55914062 -241.78515625 92.33203125 C-217.4965018 87.58843207 -191.632387 88.93814557 -167 89 C-151.01599786 89.03670055 -135.04229242 89.02201348 -119.0625 88.625 C-117.96168091 88.60179687 -117.96168091 88.60179687 -116.83862305 88.578125 C-87.64610799 87.94025509 -56.45211175 80.19414587 -32.8203125 62.25 C-31 61 -31 61 -29 61 C-29 60.34 -29 59.68 -29 59 C-27.49609375 57.5546875 -27.49609375 57.5546875 -25.4375 55.875 C-19.0120203 50.39344033 -13.84571147 44.56031914 -10 37 C-9.5153125 36.11441406 -9.030625 35.22882813 -8.53125 34.31640625 C-3.88281626 25.55502011 -0.73406726 17.01679969 -1 7 C-1.66 7.33 -2.32 7.66 -3 8 C-1.125 2.25 -1.125 2.25 0 0 Z " fill="#A0A0A0" transform="translate(438,42)"/>
<path d="M0 0 C2.97 0.495 2.97 0.495 6 1 C6 1.66 6 2.32 6 3 C7.258125 3.144375 8.51625 3.28875 9.8125 3.4375 C12.42667123 3.73748686 14.47439892 4.15813297 17 5 C17 5.66 17 6.32 17 7 C17.72960937 7.04898437 18.45921875 7.09796875 19.2109375 7.1484375 C26.60174685 7.67765595 33.94355727 8.41911997 41.30371094 9.26464844 C47.85987205 10.00807278 54.41604772 10.55796787 61 11 C61 11.66 61 12.32 61 13 C62.051875 13.0825 63.10375 13.165 64.1875 13.25 C70.33308436 13.99189937 76.13999174 16.07941803 82 18 C82 18.66 82 19.32 82 20 C84.97 20.33 87.94 20.66 91 21 C91 21.66 91 22.32 91 23 C83.36937313 23.13444393 75.90384185 22.75657818 68.3125 22 C67.31283203 21.90460938 66.31316406 21.80921875 65.28320312 21.7109375 C62.85498326 21.47857196 60.42732101 21.24154365 58 21 C58 20.34 58 19.68 58 19 C56.69675781 18.92652344 56.69675781 18.92652344 55.3671875 18.8515625 C54.21476562 18.77679688 53.06234375 18.70203125 51.875 18.625 C50.73804688 18.55539062 49.60109375 18.48578125 48.4296875 18.4140625 C45.02499454 18.00301756 42.22143774 17.14309081 39 16 C37.21537517 15.59280391 35.42358522 15.21527288 33.625 14.875 C32.31402344 14.62363281 32.31402344 14.62363281 30.9765625 14.3671875 C29.99816406 14.18542969 29.99816406 14.18542969 29 14 C29 13.34 29 12.68 29 12 C26.36 11.67 23.72 11.34 21 11 C21 10.34 21 9.68 21 9 C18.36 8.67 15.72 8.34 13 8 C13 7.34 13 6.68 13 6 C12.40832031 5.87882812 11.81664062 5.75765625 11.20703125 5.6328125 C6.96196415 4.73255357 2.97560339 3.79543379 -1 2 C-0.67 1.34 -0.34 0.68 0 0 Z " fill="#ACACAC" transform="translate(142,414)"/>
<path d="M0 0 C0.99 0.495 0.99 0.495 2 1 C-1 3 -1 3 -4 3 C-4 3.66 -4 4.32 -4 5 C-5.98 5.33 -7.96 5.66 -10 6 C-10 6.66 -10 7.32 -10 8 C-19.77296074 13.29877715 -29.35260155 16.9099398 -40 20 C-41.07507813 20.37253906 -42.15015625 20.74507813 -43.2578125 21.12890625 C-46.30126852 22.09570211 -48.82612406 22.15113695 -52 22 C-52 22.66 -52 23.32 -52 24 C-63.65096187 25.83531326 -75.22688601 26.19923676 -87 26.1875 C-88.07204178 26.18858765 -88.07204178 26.18858765 -89.16574097 26.18969727 C-97.15621803 26.18878178 -105.06612927 26.03583739 -113 25 C-113 24.34 -113 23.68 -113 23 C-113.92039063 22.97421875 -114.84078125 22.9484375 -115.7890625 22.921875 C-125.10637978 22.50439846 -133.09765734 20.9491582 -142 18 C-142 17.34 -142 16.68 -142 16 C-143.134375 15.87625 -144.26875 15.7525 -145.4375 15.625 C-147.2009375 15.315625 -147.2009375 15.315625 -149 15 C-149.33 14.34 -149.66 13.68 -150 13 C-144.06 13.99 -144.06 13.99 -138 15 C-138 15.66 -138 16.32 -138 17 C-134.04 17.33 -130.08 17.66 -126 18 C-126 18.66 -126 19.32 -126 20 C-124.85660156 20.06058594 -123.71320313 20.12117188 -122.53515625 20.18359375 C-121.04425695 20.26798428 -119.55337225 20.35263302 -118.0625 20.4375 C-117.30775391 20.47681641 -116.55300781 20.51613281 -115.77539062 20.55664062 C-110.11328125 20.88671875 -110.11328125 20.88671875 -109 22 C-96.77790405 23.32351574 -84.50780517 23.268711 -72.25 22.5625 C-71.54560791 22.52334473 -70.84121582 22.48418945 -70.11547852 22.44384766 C-66.7687948 22.49345052 -66.7687948 22.49345052 -64 21 C-61.47403741 20.76346477 -58.96892793 20.57826308 -56.4375 20.4375 C-55.72658203 20.39431641 -55.01566406 20.35113281 -54.28320312 20.30664062 C-52.52238088 20.20028223 -50.7612168 20.09961154 -49 20 C-49 19.34 -49 18.68 -49 18 C-45.37 17.67 -41.74 17.34 -38 17 C-38 16.34 -38 15.68 -38 15 C-37.00033203 14.76216797 -37.00033203 14.76216797 -35.98046875 14.51953125 C-29.72322867 12.93553061 -24.1030395 10.84146859 -18.3125 7.98828125 C-16 7 -16 7 -13 7 C-13 6.34 -13 5.68 -13 5 C-11.03544508 4.2674541 -9.07079459 3.53516259 -7.10546875 2.8046875 C-5.42792796 2.16354946 -3.77195188 1.46606604 -2.125 0.75 C-1.42375 0.5025 -0.7225 0.255 0 0 Z " fill="#CACACA" transform="translate(259,369)"/>
<path d="M0 0 C0.66 0 1.32 0 2 0 C3.95437435 24.74377524 2.94982013 49.30314265 1 74 C0.67 74 0.34 74 0 74 C-0.66 79.28 -1.32 84.56 -2 90 C-2.66 90 -3.32 90 -4 90 C-4.33 94.29 -4.66 98.58 -5 103 C-5.66 103 -6.32 103 -7 103 C-7.02578125 103.57105469 -7.0515625 104.14210938 -7.078125 104.73046875 C-7.60096704 112.20473338 -9.61474154 118.92188421 -12 126 C-12.66 126 -13.32 126 -14 126 C-14.33 128.97 -14.66 131.94 -15 135 C-15.66 135 -16.32 135 -17 135 C-17.08378906 135.82371094 -17.16757812 136.64742187 -17.25390625 137.49609375 C-18.16857271 141.79167395 -19.90034281 145.20091531 -21.9375 149.0625 C-25.23503219 155.40788338 -25.23503219 155.40788338 -28 162 C-28.66 162 -29.32 162 -30 162 C-30.0825 162.680625 -30.165 163.36125 -30.25 164.0625 C-31.22332528 167.8746907 -32.95807455 170.64070329 -35 174 C-35.66 174 -36.32 174 -37 174 C-35.62799845 168.92359425 -33.23785271 164.66833663 -30.70703125 160.10546875 C-24.79748048 149.35468416 -20.03860819 138.56619152 -16 127 C-15.74331543 126.27232422 -15.48663086 125.54464844 -15.22216797 124.79492188 C-8.66765687 106.1094921 -4.83394506 87.57581911 -2 68 C-1.87850586 67.20368164 -1.75701172 66.40736328 -1.63183594 65.58691406 C0.59438544 50.80081688 0.19915883 35.9124001 0 21 C-0.33 24.3 -0.66 27.6 -1 31 C-1.33 31 -1.66 31 -2 31 C-2.33358056 20.51074452 -1.30618118 10.39113779 0 0 Z " fill="#9C9C9C" transform="translate(440,166)"/>
<path d="M0 0 C0.33 0.66 0.66 1.32 1 2 C-0.16342391 2.00358253 -0.16342391 2.00358253 -1.35035133 2.00723743 C-20.27392241 2.06652451 -39.19736458 2.1421616 -58.12079811 2.23571491 C-67.27225208 2.2805686 -76.42366805 2.32000697 -85.57519531 2.34643555 C-93.5571091 2.36950044 -101.53890155 2.4029923 -109.52071893 2.44870156 C-113.74209823 2.47251994 -117.96335819 2.49132293 -122.18480301 2.49761391 C-126.16903199 2.50371678 -130.15295611 2.52390099 -134.13707161 2.55427551 C-135.5889212 2.56297328 -137.04081077 2.56679576 -138.49268532 2.56500816 C-146.98917271 2.55785851 -154.74303063 3.29902265 -162.99886131 5.35895061 C-165.77819448 5.95262189 -168.17141857 6.12376292 -171 6 C-171 6.66 -171 7.32 -171 8 C-174.3 8.33 -177.6 8.66 -181 9 C-181 9.66 -181 10.32 -181 11 C-181.94746094 11.22042969 -181.94746094 11.22042969 -182.9140625 11.4453125 C-194.03745212 14.23417387 -205.42113926 18.61409284 -215 25 C-216.34325423 25.72881517 -217.69816437 26.43645678 -219.0625 27.125 C-220.10083984 27.65480469 -220.10083984 27.65480469 -221.16015625 28.1953125 C-223 29 -223 29 -225 29 C-225 29.66 -225 30.32 -225 31 C-226.65 31.33 -228.3 31.66 -230 32 C-230 32.66 -230 33.32 -230 34 C-231.98 34.495 -231.98 34.495 -234 35 C-234 35.66 -234 36.32 -234 37 C-236.96187272 39.17204 -239.50685991 40.83561997 -243 42 C-243 42.66 -243 43.32 -243 44 C-244.98 44.495 -244.98 44.495 -247 45 C-241.50325527 37.33787098 -233.88203492 32.90833948 -226 28 C-224.97132813 27.35675781 -223.94265625 26.71351563 -222.8828125 26.05078125 C-211.88589633 19.41984941 -200.19792572 14.0152773 -188 10 C-187.30358398 9.76925781 -186.60716797 9.53851563 -185.88964844 9.30078125 C-183.47103551 8.50368088 -181.04883453 7.71857183 -178.625 6.9375 C-177.49336426 6.56902954 -177.49336426 6.56902954 -176.33886719 6.19311523 C-164.23692707 2.3608342 -152.88227389 0.55236798 -140.20385742 0.56762695 C-138.66500575 0.55858738 -137.12616122 0.54825487 -135.58732605 0.53674316 C-131.45184453 0.50940439 -127.31650048 0.49992048 -123.18094039 0.49388909 C-118.84341704 0.48444455 -114.50599397 0.45823674 -110.16853333 0.43388367 C-101.97373154 0.39038104 -93.77894939 0.36173473 -85.58406764 0.33856028 C-76.2465216 0.31142106 -66.90907726 0.26751529 -57.57160413 0.22227156 C-38.38112328 0.12965811 -19.19061551 0.05787125 0 0 Z " fill="#959595" transform="translate(342,240)"/>
<path d="M0 0 C0.66 0 1.32 0 2 0 C1.53376221 0.85887817 1.53376221 0.85887817 1.05810547 1.73510742 C0.01939631 3.95848187 -0.4908539 5.83329051 -0.9296875 8.23828125 C-1.15978516 9.45765381 -1.15978516 9.45765381 -1.39453125 10.70166016 C-1.55308594 11.5632373 -1.71164062 12.42481445 -1.875 13.3125 C-4.04441323 24.57346737 -6.36050152 35.77688774 -10.88671875 46.3671875 C-11.72670429 48.35367961 -12.51172203 50.36354238 -13.26953125 52.3828125 C-22.46270974 76.87736693 -38.94642175 101.08689203 -60 117 C-61.485 117.495 -61.485 117.495 -63 118 C-63 117.34 -63 116.68 -63 116 C-58.52941176 112 -58.52941176 112 -56 112 C-56 111.34 -56 110.68 -56 110 C-54.53125 108.625 -54.53125 108.625 -52.5 107 C-48.24091647 103.41539767 -44.99036676 99.3875221 -41.6640625 94.94140625 C-41.11492187 94.30074219 -40.56578125 93.66007812 -40 93 C-39.34 93 -38.68 93 -38 93 C-37.67 91.68 -37.34 90.36 -37 89 C-36.34 89 -35.68 89 -35 89 C-33.8565644 86.79480277 -32.86774078 84.64455335 -32 82.3125 C-31 80 -31 80 -29 79 C-27.94773272 77.02699884 -26.95211112 75.02323613 -26 73 C-25.33333333 71.66666667 -24.66666667 70.33333333 -24 69 C-23.34 69 -22.68 69 -22 69 C-21.8453125 67.700625 -21.8453125 67.700625 -21.6875 66.375 C-20.96268891 62.81683648 -19.6719058 60.20448611 -18 57 C-17.31363375 54.76474965 -17.31363375 54.76474965 -17 53 C-16.34 53 -15.68 53 -15 53 C-14.67 50.69 -14.34 48.38 -14 46 C-13.34 46 -12.68 46 -12 46 C-11.67 43.03 -11.34 40.06 -11 37 C-10.34 37 -9.68 37 -9 37 C-8.896875 35.80375 -8.79375 34.6075 -8.6875 33.375 C-8.09773849 27.95603194 -6.8810653 22.71386444 -5.69921875 17.3984375 C-4.84840169 13.26318139 -4.3623594 9.20336899 -4 5 C-3.34 5 -2.68 5 -2 5 C-1.855625 4.360625 -1.71125 3.72125 -1.5625 3.0625 C-1 1 -1 1 0 0 Z " fill="#EDEDED" transform="translate(345,238)"/>
<path d="M0 0 C0.66 0 1.32 0 2 0 C3.59252717 20.16253153 3.39994673 40.32724465 2.125 60.5 C2.04660889 61.80026123 1.96821777 63.10052246 1.88745117 64.44018555 C1.80342041 65.64586182 1.71938965 66.85153809 1.6328125 68.09375 C1.55949707 69.16302734 1.48618164 70.23230469 1.41064453 71.33398438 C0.86178758 74.8973125 -1.01601352 77.02402028 -3 80 C-2.69077186 76.31221806 -2.37702753 72.62483344 -2.0625 68.9375 C-1.97548828 67.89916016 -1.88847656 66.86082031 -1.79882812 65.79101562 C-1.71181641 64.77587891 -1.62480469 63.76074219 -1.53515625 62.71484375 C-1.456604 61.78792725 -1.37805176 60.86101074 -1.29711914 59.90600586 C-1.08089481 57.79120045 -0.79680616 55.68300286 -0.47265625 53.58203125 C0.00051973 49.99606123 0.11372285 46.58764184 0.09765625 42.97265625 C0.09443359 41.68681641 0.09121094 40.40097656 0.08789062 39.07617188 C0.07953802 37.73828055 0.07107311 36.40038993 0.0625 35.0625 C0.05747659 33.69726726 0.05291517 32.33203274 0.04882812 30.96679688 C0.03708851 27.64448543 0.02066679 24.32226592 0 21 C-0.33 24.3 -0.66 27.6 -1 31 C-1.33 31 -1.66 31 -2 31 C-2.33358056 20.51074452 -1.30618118 10.39113779 0 0 Z " fill="#979797" transform="translate(440,166)"/>
<path d="M0 0 C0.66 0 1.32 0 2 0 C2.22428282 7.94957992 1.95403042 15.27111181 0 23 C-0.66 23 -1.32 23 -2 23 C-2.103125 24.19625 -2.20625 25.3925 -2.3125 26.625 C-2.78891352 30.5624176 -4.01130716 33.54140375 -6 37 C-6.66 37 -7.32 37 -8 37 C-8.24105469 37.86367187 -8.48210937 38.72734375 -8.73046875 39.6171875 C-10.12814941 43.3414689 -11.90767773 45.96437645 -14.3125 49.125 C-15.07175781 50.13820312 -15.83101563 51.15140625 -16.61328125 52.1953125 C-18.8993091 54.88167583 -21.18248151 56.89612928 -24 59 C-25.3303125 60.11375 -25.3303125 60.11375 -26.6875 61.25 C-29 63 -29 63 -31 63 C-31 63.66 -31 64.32 -31 65 C-32.98 65.495 -32.98 65.495 -35 66 C-35 66.66 -35 67.32 -35 68 C-39.625 70.125 -39.625 70.125 -43 69 C-41.23174858 67.85018626 -39.46030479 66.70528078 -37.6875 65.5625 C-36.70136719 64.92441406 -35.71523438 64.28632812 -34.69921875 63.62890625 C-32 62 -32 62 -29 61 C-29 60.34 -29 59.68 -29 59 C-27.49609375 57.5546875 -27.49609375 57.5546875 -25.4375 55.875 C-19.0120203 50.39344033 -13.84571147 44.56031914 -10 37 C-9.5153125 36.11441406 -9.030625 35.22882813 -8.53125 34.31640625 C-3.88281626 25.55502011 -0.73406726 17.01679969 -1 7 C-1.66 7.33 -2.32 7.66 -3 8 C-1.125 2.25 -1.125 2.25 0 0 Z " fill="#8F8F8F" transform="translate(438,42)"/>
<path d="M0 0 C1 3 1 3 0 6 C-0.66 6 -1.32 6 -2 6 C-2.268125 6.825 -2.53625 7.65 -2.8125 8.5 C-4.12524922 12.36915561 -5.55101284 16.17994294 -7 20 C-7.66 20 -8.32 20 -9 20 C-9.11472656 20.87140625 -9.22945312 21.7428125 -9.34765625 22.640625 C-9.99992198 25.9995982 -11.02340283 28.64486081 -12.4375 31.75 C-14.75493585 37.10823319 -16.14569456 42.23662596 -17 48 C-17.66 48 -18.32 48 -19 48 C-19 49.98 -19 51.96 -19 54 C-19.66 53.67 -20.32 53.34 -21 53 C-20.57423098 47.33054942 -19.86980609 42.38944107 -18 37 C-17.66904491 35.19077883 -17.35846839 33.37777277 -17.0625 31.5625 C-16.27600491 26.95678477 -15.04765373 23.18838263 -13 19 C-12.67 19.66 -12.34 20.32 -12 21 C-11.34 21 -10.68 21 -10 21 C-10 19.68 -10 18.36 -10 17 C-9.34 17 -8.68 17 -8 17 C-7.79375 16.236875 -7.5875 15.47375 -7.375 14.6875 C-5.44105609 9.50101406 -2.7214854 4.80966916 0 0 Z " fill="#9D9D9D" transform="translate(58,328)"/>
<path d="M0 0 C1.53935211 0.00212242 1.53935211 0.00212242 3.10980225 0.00428772 C6.33885809 0.00981745 9.56784065 0.02235604 12.796875 0.03515625 C15.0065094 0.04018036 17.21614491 0.04474165 19.42578125 0.04882812 C24.79950353 0.05976371 30.17318403 0.07642987 35.546875 0.09765625 C35.546875 0.42765625 35.546875 0.75765625 35.546875 1.09765625 C34.48476807 1.1227124 33.42266113 1.14776855 32.32836914 1.17358398 C28.30062419 1.2693999 24.27298406 1.36915834 20.24536133 1.4699707 C18.51849864 1.51267445 16.79161087 1.55437838 15.06469727 1.5949707 C5.98916697 1.80897884 -3.07947087 2.07430307 -12.14453125 2.5703125 C-12.86946274 2.60740829 -13.59439423 2.64450409 -14.34129333 2.682724 C-17.68610546 2.61275633 -17.68610546 2.61275633 -20.453125 4.09765625 C-22.00046579 4.37099114 -23.55774613 4.58858939 -25.1171875 4.78125 C-26.07496094 4.90435547 -27.03273437 5.02746094 -28.01953125 5.15429688 C-30.03503536 5.40526961 -32.05065799 5.65529268 -34.06640625 5.90429688 C-39.38961022 6.59013023 -44.32531465 7.52764336 -49.453125 9.09765625 C-52.390625 9.22265625 -52.390625 9.22265625 -54.453125 9.09765625 C-51.52017162 6.16470287 -47.95257745 5.91610077 -44.015625 5.09765625 C-43.19884277 4.92322998 -42.38206055 4.74880371 -41.54052734 4.5690918 C-39.17989123 4.06925012 -36.81711471 3.58135443 -34.453125 3.09765625 C-33.39222656 2.87722656 -32.33132812 2.65679687 -31.23828125 2.4296875 C-20.89714406 0.41005278 -10.51475812 -0.05617209 0 0 Z " fill="#A9A9A9" transform="translate(227.453125,131.90234375)"/>
<path d="M0 0 C0.66 0.33 1.32 0.66 2 1 C-1 3 -1 3 -4 3 C-4 3.66 -4 4.32 -4 5 C-5.98 5.33 -7.96 5.66 -10 6 C-10 6.66 -10 7.32 -10 8 C-19.77296074 13.29877715 -29.35260155 16.9099398 -40 20 C-41.1034375 20.39574219 -42.206875 20.79148437 -43.34375 21.19921875 C-46 22 -46 22 -48 21 C-46.35 20.67 -44.7 20.34 -43 20 C-42.67 19.01 -42.34 18.02 -42 17 C-40.68 17 -39.36 17 -38 17 C-38 16.34 -38 15.68 -38 15 C-37.33355469 14.84144531 -36.66710937 14.68289063 -35.98046875 14.51953125 C-29.72322867 12.93553061 -24.1030395 10.84146859 -18.3125 7.98828125 C-16 7 -16 7 -13 7 C-13 6.34 -13 5.68 -13 5 C-11.03544508 4.2674541 -9.07079459 3.53516259 -7.10546875 2.8046875 C-5.42792796 2.16354946 -3.77195188 1.46606604 -2.125 0.75 C-1.42375 0.5025 -0.7225 0.255 0 0 Z " fill="#D5D5D5" transform="translate(259,369)"/>
<path d="M0 0 C0 0.99 0 1.98 0 3 C-1.6396721 4.36639342 -3.31110128 5.6949419 -5 7 C-5.639375 7.804375 -6.27875 8.60875 -6.9375 9.4375 C-9 12 -9 12 -11.9375 14.3125 C-15.00703436 16.75733013 -16.74888063 19.5217758 -18.62890625 22.9375 C-20 25 -20 25 -22.390625 27.32421875 C-25.22078911 30.22640799 -27.19119224 33.32188001 -29.1875 36.8125 C-30.40198679 38.93270575 -31.64712494 40.96023473 -33 43 C-33.66 43 -34.32 43 -35 43 C-33.43358249 38.69235185 -31.31663844 34.93828536 -29 31 C-28.34 31 -27.68 31 -27 31 C-26.78214844 30.31164062 -26.56429687 29.62328125 -26.33984375 28.9140625 C-24.64072296 25.21859863 -22.22425626 22.40056032 -19.5625 19.375 C-19.03479004 18.76760986 -18.50708008 18.16021973 -17.96337891 17.53442383 C-4.57180741 2.2859037 -4.57180741 2.2859037 0 0 Z " fill="#9C9C9C" transform="translate(94,285)"/>
<path d="M0 0 C0.66 0 1.32 0 2 0 C2 14.19 2 28.38 2 43 C1.67 43 1.34 43 1 43 C0.67 35.74 0.34 28.48 0 21 C-0.33 24.3 -0.66 27.6 -1 31 C-1.33 31 -1.66 31 -2 31 C-2.33358056 20.51074452 -1.30618118 10.39113779 0 0 Z " fill="#888888" transform="translate(440,166)"/>
<path d="M0 0 C0.66 0.33 1.32 0.66 2 1 C-0.58223309 5.20808356 -3.02216967 8.08939244 -7 11 C-8.3303125 12.11375 -8.3303125 12.11375 -9.6875 13.25 C-12 15 -12 15 -14 15 C-14 15.66 -14 16.32 -14 17 C-15.32 17.33 -16.64 17.66 -18 18 C-18 18.66 -18 19.32 -18 20 C-22.625 22.125 -22.625 22.125 -26 21 C-24.23174858 19.85018626 -22.46030479 18.70528078 -20.6875 17.5625 C-19.70136719 16.92441406 -18.71523438 16.28632812 -17.69921875 15.62890625 C-15 14 -15 14 -12 13 C-12 12.34 -12 11.68 -12 11 C-10.390625 9.4140625 -10.390625 9.4140625 -8.25 7.625 C-5.3756268 5.18382134 -2.61456008 2.72350008 0 0 Z " fill="#969696" transform="translate(421,90)"/>
<path d="M0 0 C1.16209423 3.48628269 0.88616059 3.86370218 -0.65234375 7.01171875 C-1.01650391 7.76904297 -1.38066406 8.52636719 -1.75585938 9.30664062 C-2.14580078 10.09232422 -2.53574219 10.87800781 -2.9375 11.6875 C-3.32357422 12.48478516 -3.70964844 13.28207031 -4.10742188 14.10351562 C-5.06290602 16.07346443 -6.02732106 18.03849939 -7 20 C-7.66 20 -8.32 20 -9 20 C-9.0825 20.680625 -9.165 21.36125 -9.25 22.0625 C-10.22332528 25.8746907 -11.95807455 28.64070329 -14 32 C-14.66 32 -15.32 32 -16 32 C-14.64277816 26.9782792 -12.31283921 22.74318214 -9.796875 18.234375 C-7.69464771 14.45036587 -5.65668757 10.63469708 -3.625 6.8125 C-3.08818604 5.80425171 -3.08818604 5.80425171 -2.54052734 4.77563477 C-1.69318292 3.18402365 -0.84651609 1.59205183 0 0 Z " fill="#ACACAC" transform="translate(419,308)"/>
<path d="M0 0 C0.66 0 1.32 0 2 0 C1.6898999 0.56605957 1.3797998 1.13211914 1.06030273 1.71533203 C-0.01945525 4.04192084 -0.51844134 6.03575834 -0.96484375 8.5546875 C-1.12533203 9.41707031 -1.28582031 10.27945313 -1.45117188 11.16796875 C-1.77390912 12.96440982 -2.09424458 14.76128414 -2.41210938 16.55859375 C-3.33649065 21.50090318 -4.44574346 25.590087 -7 30 C-8.52853562 26.94292877 -7.39620277 24.71688059 -6.625 21.4375 C-5.38461311 15.93788507 -4.48383249 10.61245687 -4 5 C-3.34 5 -2.68 5 -2 5 C-1.855625 4.360625 -1.71125 3.72125 -1.5625 3.0625 C-1 1 -1 1 0 0 Z " fill="#E8E8E8" transform="translate(345,238)"/>
<path d="M0 0 C5.94 0.99 5.94 0.99 12 2 C12 2.66 12 3.32 12 4 C15.96 4.33 19.92 4.66 24 5 C24 6.32 24 7.64 24 9 C18.34979382 8.39891424 13.33835539 6.92471317 8 5 C8 4.34 8 3.68 8 3 C6.865625 2.87625 5.73125 2.7525 4.5625 2.625 C3.386875 2.41875 2.21125 2.2125 1 2 C0.67 1.34 0.34 0.68 0 0 Z " fill="#D3D3D3" transform="translate(109,382)"/>
<path d="M0 0 C1.32 0 2.64 0 4 0 C4 0.66 4 1.32 4 2 C3.34 2 2.68 2 2 2 C1.896875 3.010625 1.79375 4.02125 1.6875 5.0625 C0.73881586 10.49587283 -1.47021688 15.13503246 -4 20 C-5.109375 18.41015625 -5.109375 18.41015625 -6 16 C-5.390625 12.87109375 -5.390625 12.87109375 -4.25 9.4375 C-3.88390625 8.30183594 -3.5178125 7.16617187 -3.140625 5.99609375 C-2 3 -2 3 0 0 Z " fill="#B0B0B0" transform="translate(44,254)"/>
<path d="M0 0 C0.66 0.33 1.32 0.66 2 1 C-5.59 8.59 -13.18 16.18 -21 24 C-21 20.45705078 -20.52369695 20.11736033 -18.18359375 17.63671875 C-17.58353516 16.99669922 -16.98347656 16.35667969 -16.36523438 15.69726562 C-15.72908203 15.03404297 -15.09292969 14.37082031 -14.4375 13.6875 C-13.82841797 13.03587891 -13.21933594 12.38425781 -12.59179688 11.71289062 C-8.61352913 7.50729329 -4.45396742 3.69730886 0 0 Z " fill="#9A9A9A" transform="translate(102,260)"/>
<path d="M0 0 C1.29853064 2.59706128 0.87175317 3.93155893 0.44140625 6.7890625 C0.30283203 7.73007812 0.16425781 8.67109375 0.02148438 9.640625 C-0.12998047 10.62546875 -0.28144531 11.6103125 -0.4375 12.625 C-0.58509766 13.61757813 -0.73269531 14.61015625 -0.88476562 15.6328125 C-1.25089765 18.08944027 -1.62287314 20.54504009 -2 23 C-2.66 23 -3.32 23 -4 23 C-4 24.98 -4 26.96 -4 29 C-4.66 28.67 -5.32 28.34 -6 28 C-5.57423098 22.33054942 -4.86980609 17.38944107 -3 12 C-2.43721616 9.10451794 -1.9401969 6.2040157 -1.46484375 3.29296875 C-1 1 -1 1 0 0 Z " fill="#9D9D9D" transform="translate(43,353)"/>
<path d="M0 0 C1 3 1 3 0.13549805 4.80932617 C-0.54452271 5.79122925 -0.54452271 5.79122925 -1.23828125 6.79296875 C-1.72876953 7.50517578 -2.21925781 8.21738281 -2.72460938 8.95117188 C-3.24861328 9.68916016 -3.77261719 10.42714844 -4.3125 11.1875 C-4.82490234 11.93708984 -5.33730469 12.68667969 -5.86523438 13.45898438 C-8.71470282 17.54186029 -8.71470282 17.54186029 -10 19 C-10.66 19 -11.32 19 -12 19 C-12.103125 19.598125 -12.20625 20.19625 -12.3125 20.8125 C-13.08876455 23.28243264 -14.07088921 24.32251235 -16 26 C-16.66 25.67 -17.32 25.34 -18 25 C-17.28714844 24.03320312 -16.57429688 23.06640625 -15.83984375 22.0703125 C-10.46968632 14.7746679 -5.14240788 7.45912405 0 0 Z " fill="#B4B4B4" transform="translate(402,340)"/>
<path d="M0 0 C0.98120464 3.05263664 0.98120464 4.94736336 0 8 C-0.66 8 -1.32 8 -2 8 C-2.33 10.97 -2.66 13.94 -3 17 C-3.66 17 -4.32 17 -5 17 C-5.33 18.98 -5.66 20.96 -6 23 C-6.99 23.33 -7.98 23.66 -9 24 C-7.19060209 18.47657481 -5.3117375 12.9800629 -3.375 7.5 C-2.94960938 6.2934375 -2.52421875 5.086875 -2.0859375 3.84375 C-1 1 -1 1 0 0 Z " fill="#A4A4A4" transform="translate(428,284)"/>
<path d="M0 0 C3.4166083 1.1103977 6.81196749 2.27083197 10.1875 3.5 C10.84105469 3.7371875 11.49460937 3.974375 12.16796875 4.21875 C14 5 14 5 17 7 C18.32567199 7.68177416 19.65753688 8.35191436 21 9 C15.80682678 10.73105774 10.73682421 8.85068941 5.9375 6.5 C5.298125 6.005 4.65875 5.51 4 5 C4 4.34 4 3.68 4 3 C3.01 3 2.02 3 1 3 C0.67 2.01 0.34 1.02 0 0 Z " fill="#E6E6E6" transform="translate(79,369)"/>
<path d="M0 0 C0.33 0 0.66 0 1 0 C1.05797565 3.93743833 1.09358789 7.87476719 1.125 11.8125 C1.14175781 12.93205078 1.15851563 14.05160156 1.17578125 15.20507812 C1.18222656 16.27822266 1.18867188 17.35136719 1.1953125 18.45703125 C1.20578613 19.44678955 1.21625977 20.43654785 1.22705078 21.45629883 C0.90897205 25.01980668 -1.03807395 27.05711093 -3 30 C-2.69077186 26.31221806 -2.37702753 22.62483344 -2.0625 18.9375 C-1.97548828 17.89916016 -1.88847656 16.86082031 -1.79882812 15.79101562 C-1.34503169 10.49672393 -0.82652639 5.24955949 0 0 Z " fill="#909090" transform="translate(440,216)"/>
<path d="M0 0 C6.6 0 13.2 0 20 0 C20 0.33 20 0.66 20 1 C17.14633646 1.33821197 14.29219404 1.6706978 11.4375 2 C10.23770508 2.14308594 10.23770508 2.14308594 9.01367188 2.2890625 C4.30547833 2.82714176 -0.26147265 3.10176703 -5 3 C-5 2.67 -5 2.34 -5 2 C-3.35 2 -1.7 2 0 2 C0 1.34 0 0.68 0 0 Z " fill="#D9D9D9" transform="translate(187,392)"/>
<path d="M0 0 C0.66 0.33 1.32 0.66 2 1 C-1 3 -1 3 -4 3 C-4 3.66 -4 4.32 -4 5 C-5.98 5.33 -7.96 5.66 -10 6 C-10 6.66 -10 7.32 -10 8 C-11.98 8.66 -13.96 9.32 -16 10 C-16 9.01 -16 8.02 -16 7 C-15.01 7 -14.02 7 -13 7 C-13 6.34 -13 5.68 -13 5 C-11.03544508 4.2674541 -9.07079459 3.53516259 -7.10546875 2.8046875 C-5.42792796 2.16354946 -3.77195188 1.46606604 -2.125 0.75 C-1.42375 0.5025 -0.7225 0.255 0 0 Z " fill="#DBDBDB" transform="translate(259,369)"/>
<path d="M0 0 C1.32440261 2.64880522 0.8146285 3.99197266 0.25 6.875 C0.01023437 8.17050781 0.01023437 8.17050781 -0.234375 9.4921875 C-1.05844899 12.19145025 -2.18817457 13.85965677 -4 16 C-4.36266924 10.19729221 -3.30512167 6.34788227 -1 1 C-0.67 0.67 -0.34 0.34 0 0 Z " fill="#8B8B8B" transform="translate(46,350)"/>
<path d="M0 0 C0 0.66 0 1.32 0 2 C1.32 2.33 2.64 2.66 4 3 C-2.41688675 3.10349817 -8.62694402 2.74507544 -15 2 C-15 1.67 -15 1.34 -15 1 C-9.91913204 0.15318867 -5.15171623 -0.09038099 0 0 Z " fill="#D2D2D3" transform="translate(161,392)"/>
<path d="M0 0 C1.32 0 2.64 0 4 0 C4 0.66 4 1.32 4 2 C3.34 2 2.68 2 2 2 C1.896875 3.093125 1.79375 4.18625 1.6875 5.3125 C1.02692273 8.85559629 0.7972908 9.93243723 -2 12 C-1 3.42857143 -1 3.42857143 0 0 Z " fill="#AAAAAA" transform="translate(44,254)"/>
<path d="M0 0 C0.66 0 1.32 0 2 0 C2.08159574 4.16138263 1.98248524 7.9472484 1 12 C0.67 12 0.34 12 0 12 C-0.33 10.35 -0.66 8.7 -1 7 C-1.99 7.495 -1.99 7.495 -3 8 C-1.125 2.25 -1.125 2.25 0 0 Z " fill="#858585" transform="translate(438,42)"/>
<path d="M0 0 C0.66 0 1.32 0 2 0 C1.71872579 1.48117801 1.42466268 2.95993249 1.125 4.4375 C0.96257813 5.26121094 0.80015625 6.08492188 0.6328125 6.93359375 C0.42398438 7.61550781 0.21515625 8.29742187 0 9 C-0.99 9.495 -0.99 9.495 -2 10 C-2 8.68 -2 7.36 -2 6 C-2.66 6.66 -3.32 7.32 -4 8 C-3.67 6.02 -3.34 4.04 -3 2 C-2.67 2.66 -2.34 3.32 -2 4 C-1.34 4 -0.68 4 0 4 C0 2.68 0 1.36 0 0 Z " fill="#979797" transform="translate(48,345)"/>
<path d="" fill="#919191" transform="translate(0,0)"/>
</svg>
